<svg xmlns="http://www.w3.org/2000/svg" xmlns:xlink="http://www.w3.org/1999/xlink" viewBox="0 0 1856.41 1830"><defs><style>.cls-1{isolation:isolate;}.cls-2{fill:#efeff4;}.cls-3{opacity:0.3;}.cls-4{fill:#c6c9d3;}.cls-5{fill:#e8e8ef;}.cls-6{fill:#fff;mix-blend-mode:soft-light;}.cls-7{fill:#d7d9e0;}.cls-8{fill:#74767b;}.cls-9{fill:#979aa0;}.cls-10{fill:#48494b;}.cls-11{fill:#888b8f;}.cls-12{fill:#a8abb2;}.cls-13{fill:#5c5e61;}.cls-14{fill:url(#linear-gradient);}.cls-15{fill:#f3d33f;}.cls-16{fill:url(#linear-gradient-2);}.cls-17{fill:url(#linear-gradient-3);}.cls-18{fill:url(#linear-gradient-4);}.cls-19{fill:#f7e057;}.cls-20{fill:url(#linear-gradient-5);}.cls-21{fill:url(#linear-gradient-6);}.cls-22{fill:#ecc538;}.cls-23{fill:url(#linear-gradient-7);}.cls-24{fill:#333435;}.cls-25{fill:url(#linear-gradient-8);}.cls-26{fill:url(#linear-gradient-9);}.cls-27{fill:url(#linear-gradient-10);}.cls-28{fill:url(#linear-gradient-11);}.cls-29{fill:url(#linear-gradient-12);}.cls-30{fill:url(#linear-gradient-13);}</style><linearGradient id="linear-gradient" x1="1399.68" y1="1745.3" x2="1050.84" y2="1829.16" gradientUnits="userSpaceOnUse"><stop offset="0" stop-color="#fff"/><stop offset="1" stop-color="#efeff4"/></linearGradient><linearGradient id="linear-gradient-2" x1="745.57" y1="1734.33" x2="1235.97" y2="1501.75" xlink:href="#linear-gradient"/><linearGradient id="linear-gradient-3" x1="733.64" y1="1709.17" x2="1224.04" y2="1476.6" xlink:href="#linear-gradient"/><linearGradient id="linear-gradient-4" x1="742.57" y1="1728" x2="1232.97" y2="1495.43" xlink:href="#linear-gradient"/><linearGradient id="linear-gradient-5" x1="635.56" y1="1545.34" x2="696.68" y2="1378.43" xlink:href="#linear-gradient"/><linearGradient id="linear-gradient-6" x1="1003.46" y1="1782.1" x2="413.11" y2="1755.26" xlink:href="#linear-gradient"/><linearGradient id="linear-gradient-7" x1="664.88" y1="1272.97" x2="565.96" y2="1111.96" xlink:href="#linear-gradient"/><linearGradient id="linear-gradient-8" x1="611.05" y1="1306.04" x2="512.13" y2="1145.03" xlink:href="#linear-gradient"/><linearGradient id="linear-gradient-9" x1="1113.81" y1="1802.58" x2="1083.03" y2="1839.67" xlink:href="#linear-gradient"/><linearGradient id="linear-gradient-10" x1="1640.47" y1="1318.58" x2="1713.08" y2="1560.1" xlink:href="#linear-gradient"/><linearGradient id="linear-gradient-11" x1="1924.54" y1="2017.35" x2="1994.97" y2="1745.65" xlink:href="#linear-gradient"/><linearGradient id="linear-gradient-12" x1="1646.74" y1="1358.83" x2="1526.77" y2="1180.46" xlink:href="#linear-gradient"/><linearGradient id="linear-gradient-13" x1="1676.97" y1="1307.6" x2="1749.59" y2="1549.12" xlink:href="#linear-gradient"/></defs><title>contrato</title><g class="cls-1"><g id="Illustration"><path class="cls-2" d="M1890.81,1862.05c-36.32,38.24-70.69,62.9-97.84,82.38-319.16,229-696.81,162.24-777.07,145.94-118.52-24.07-347.62-70.6-513.25-265.38C252.06,1530.3,291.08,1066,485.46,759.55c35.55-56.06,223.36-367.2,605.07-417.09,231-30.2,500.3,30.7,695.31,194.08C2195.18,879.49,2166,1572.3,1890.81,1862.05Z" transform="translate(-321.8 -335)"/><g class="cls-3"><path class="cls-4" d="M756.62,562.43a6.78,6.78,0,0,1-9.49,1.38c-5.84-4.34-12-8.5-18.17-12.36a6.77,6.77,0,0,1-2.26-9.22l.06-.12a6.8,6.8,0,0,1,9.35-2.19c6.54,4.06,13,8.44,19.12,13a6.79,6.79,0,0,1,1.79,8.9A7,7,0,0,1,756.62,562.43ZM697.4,534.77c-6.69-3-13.56-5.68-20.44-8.06a6.78,6.78,0,1,1,4.43-12.82c7.24,2.5,14.48,5.36,21.51,8.48a6.78,6.78,0,0,1,3.45,9c-.11.25-.24.49-.37.72A6.78,6.78,0,0,1,697.4,534.77Zm-54.89-17.35c-7.16-1.4-14.46-2.51-21.72-3.29a6.78,6.78,0,1,1,1.46-13.49c7.64.82,15.33,2,22.87,3.47a6.78,6.78,0,0,1,5.35,8,6.86,6.86,0,0,1-.82,2.16A6.78,6.78,0,0,1,642.51,517.42Zm-57.39-4.63c-7.3.23-14.67.78-21.92,1.64A6.79,6.79,0,0,1,561.61,501c7.63-.9,15.39-1.48,23.07-1.73a6.79,6.79,0,0,1,.44,13.57Zm-57,8.26c-7,1.84-14.11,4-21,6.46a6.78,6.78,0,0,1-4.53-12.79c7.25-2.57,14.69-4.86,22.1-6.8a6.79,6.79,0,0,1,8.28,4.85,6.78,6.78,0,0,1-4.85,8.28Zm-53.74,20.67c-6.47,3.36-12.88,7-19.05,10.94a6.78,6.78,0,0,1-7.25-11.47c6.49-4.1,13.24-8,20.05-11.52a6.79,6.79,0,0,1,6.25,12.05ZM329.73,748a6.79,6.79,0,0,1-6-7.49c.84-7.62,2-15.32,3.51-22.87a6.78,6.78,0,1,1,13.31,2.63c-1.42,7.17-2.54,14.48-3.33,21.72a6.78,6.78,0,0,1-7.49,6Zm96.86-174.19c-5.57,4.71-11,9.72-16.13,14.9a6.78,6.78,0,0,1-9.63-9.56c5.41-5.45,11.13-10.73,17-15.69A6.79,6.79,0,0,1,428,572.05,7.13,7.13,0,0,1,426.59,573.77ZM341.27,690a6.77,6.77,0,0,1-4.17-8.64c2.52-7.24,5.39-14.48,8.52-21.5A6.78,6.78,0,1,1,358,665.36c-3,6.67-5.7,13.55-8.1,20.44a6.31,6.31,0,0,1-.58,1.23A6.78,6.78,0,0,1,341.27,690Zm45.89-74.29c-4.37,5.84-8.54,11.94-12.4,18.14a6.78,6.78,0,0,1-11.59-7,.5.5,0,0,1,.08-.12c4.06-6.53,8.45-13,13-19.1a6.78,6.78,0,0,1,11.27,7.52C387.44,615.28,387.3,615.49,387.16,615.68Z" transform="translate(-321.8 -335)"/><path class="cls-4" d="M335.42,792.3a6.64,6.64,0,0,0,.93-3.94c-.25-3.49-.43-7-.54-10.56a6.78,6.78,0,1,0-13.56.43c.11,3.7.31,7.43.57,11.1a6.78,6.78,0,0,0,12.6,3Z" transform="translate(-321.8 -335)"/></g><g class="cls-3"><path class="cls-4" d="M429.66,976.4a6.79,6.79,0,0,0-1.49-8.67c-2.69-2.23-5.37-4.57-8-6.93a6.79,6.79,0,0,0-9.11,10.06c2.75,2.48,5.58,4.94,8.4,7.3a6.75,6.75,0,0,0,10.18-1.76Z" transform="translate(-321.8 -335)"/><path class="cls-4" d="M818.89,919.94a6.78,6.78,0,1,1-11.32-7.48c3.94-6,7.68-12.16,11.18-18.53a6.78,6.78,0,1,1,11.89,6.54q-2.26,4.13-4.66,8.16C823.71,912.46,821.32,916.27,818.89,919.94Zm18.54-49.11a6.79,6.79,0,0,1-3.9-8.76c2.58-6.72,4.9-13.61,6.9-20.5a6.78,6.78,0,1,1,13,3.78c-2.11,7.25-4.55,14.51-7.26,21.58a6.68,6.68,0,0,1-.51,1A6.78,6.78,0,0,1,837.43,870.83Zm-41,78.47c-5,5.66-10.28,11.19-15.75,16.43a6.78,6.78,0,0,1-9.39-9.79c5.19-5,10.22-10.22,15-15.6a6.78,6.78,0,0,1,10.93,7.93A6.7,6.7,0,0,1,796.42,949.3Zm57.19-134.36a6.77,6.77,0,0,1-5.73-7.69c1-7.11,1.78-14.34,2.21-21.5a6.79,6.79,0,0,1,13.55.81c-.46,7.55-1.25,15.17-2.34,22.65a6.66,6.66,0,0,1-.87,2.48A6.78,6.78,0,0,1,853.61,814.94ZM752.31,989.41c-6.1,4.42-12.48,8.65-19,12.56a6.79,6.79,0,0,1-7-11.62c6.16-3.71,12.22-7.73,18-11.93a6.78,6.78,0,1,1,8,11Zm-51.83,29.46c-6.94,3-14.09,5.72-21.25,8.12a6.78,6.78,0,1,1-4.31-12.86c6.8-2.28,13.6-4.88,20.19-7.72a6.78,6.78,0,0,1,5.37,12.46Zm-57,17.46c-7.43,1.41-15,2.52-22.52,3.3a6.78,6.78,0,1,1-1.4-13.49c7.13-.74,14.33-1.8,21.39-3.14a6.78,6.78,0,1,1,2.53,13.33ZM584,1040.94c-7.57-.25-15.21-.82-22.71-1.71a6.78,6.78,0,1,1,1.59-13.47c7.13.84,14.38,1.39,21.57,1.62a6.78,6.78,0,0,1-.45,13.56Zm-59.07-8.57c-7.3-1.91-14.62-4.15-21.75-6.67a6.79,6.79,0,0,1,4.52-12.8c6.77,2.4,13.72,4.53,20.66,6.34a6.79,6.79,0,1,1-3.43,13.13Zm-55.68-21.32c-4.95-2.54-9.88-5.26-14.65-8.1-1.73-1-3.44-2.07-5.14-3.13a6.7,6.7,0,0,1-2.17-9.34,6.79,6.79,0,0,1,9.35-2.17q2.42,1.52,4.88,3c4.54,2.69,9.23,5.28,13.93,7.7a6.77,6.77,0,0,1,2.93,9.13c-.06.13-.13.25-.2.37A6.78,6.78,0,0,1,469.24,1011.05Z" transform="translate(-321.8 -335)"/><path class="cls-4" d="M862.39,753.4a6.76,6.76,0,0,0,.93-4c-.28-3.67-.65-7.39-1.09-11.08a6.78,6.78,0,0,0-13.47,1.6c.42,3.5.76,7,1,10.52a6.79,6.79,0,0,0,12.6,2.94Z" transform="translate(-321.8 -335)"/></g><path class="cls-4" d="M774.16,677.63a3.19,3.19,0,0,0-3-2.08l-38.58.72a168.19,168.19,0,0,0-36.84-40.11l3.95-38.36a3.16,3.16,0,0,0-1.82-3.2l-42-19.5a3.18,3.18,0,0,0-3.62.68l-26.76,27.77a168,168,0,0,0-54.41-2.27l-24.34-29.94a3.18,3.18,0,0,0-3.55-1l-43.47,15.9a3.18,3.18,0,0,0-2.08,3l.71,38.58a168.34,168.34,0,0,0-40.1,36.84l-38.36-4a3.17,3.17,0,0,0-3.21,1.82l-19.49,42a3.18,3.18,0,0,0,.67,3.62l27.78,26.75a168.33,168.33,0,0,0-2.28,54.42L393.4,813.7a3.18,3.18,0,0,0-1,3.55l15.9,43.47a3.15,3.15,0,0,0,3,2.08l38.59-.71a167.92,167.92,0,0,0,36.84,40.1l-4,38.36a3.18,3.18,0,0,0,1.82,3.2l42,19.5a3.16,3.16,0,0,0,3.62-.68L557,934.8a168.27,168.27,0,0,0,54.41,2.28L635.77,967a3.16,3.16,0,0,0,3.55,1l43.47-15.9a3.17,3.17,0,0,0,2.08-3l-.72-38.59a167.78,167.78,0,0,0,40.11-36.84l38.36,4a3.2,3.2,0,0,0,3.2-1.82l19.5-42a3.2,3.2,0,0,0-.68-3.62l-27.77-26.76A168,168,0,0,0,759.14,749l29.94-24.35a3.18,3.18,0,0,0,1-3.55Z" transform="translate(-321.8 -335)"/><path class="cls-5" d="M627.36,798.51a46.52,46.52,0,1,1,3.91-5.61A46.58,46.58,0,0,1,627.36,798.51Zm-71.6-25.65a35.68,35.68,0,1,0,7.79-26.17,36.7,36.7,0,0,0-3,4.34A35.41,35.41,0,0,0,555.76,772.86Z" transform="translate(-321.8 -335)"/><path class="cls-5" d="M688.57,828a115.47,115.47,0,0,0,5.48-10.4h0c.53-1.12,1-2.26,1.52-3.4a115.53,115.53,0,0,0,5.82-17.38l.06-.24c0-.23.11-.46.16-.69.11-.44.21-.89.31-1.34a2.71,2.71,0,0,0-1.26-2.93,2.51,2.51,0,0,0-.79-.31,2.71,2.71,0,0,0-3.24,2A109.09,109.09,0,0,1,534.47,863,109,109,0,0,1,636.19,670.6a110.17,110.17,0,0,1,9.8,5.17,108.53,108.53,0,0,1,34.45,32.41,2.76,2.76,0,0,0,.86.81,2.71,2.71,0,0,0,3.63-3.86,114.18,114.18,0,0,0-36.17-34,114.45,114.45,0,0,0-162.23,50.15,114.44,114.44,0,0,0,45.16,146.46q5,3,10.42,5.49A114.42,114.42,0,0,0,688.57,828Z" transform="translate(-321.8 -335)"/><g class="cls-3"><path class="cls-4" d="M1028.91,454a4.18,4.18,0,0,0-.54-5c-2.42-2.61-5-5.17-7.53-7.63a4.19,4.19,0,1,0-5.78,6.07c2.45,2.34,4.87,4.78,7.18,7.27a4.19,4.19,0,0,0,5.92.21A4.14,4.14,0,0,0,1028.91,454Z" transform="translate(-321.8 -335)"/><path class="cls-4" d="M1004.64,432.9a4.19,4.19,0,0,1-5.86.87,174.36,174.36,0,0,0-14.64-9.72q-1.59-.94-3.21-1.86a4.19,4.19,0,0,1-1.58-5.71,4.34,4.34,0,0,1,5.71-1.59q1.7,1,3.36,1.95a182.36,182.36,0,0,1,15.35,10.2,4.2,4.2,0,0,1,1.11,5.5A3.75,3.75,0,0,1,1004.64,432.9Zm-42.83-20a173.72,173.72,0,0,0-20.12-6.92,4.19,4.19,0,0,1,2.23-8.08A181.65,181.65,0,0,1,965,405.12a4.2,4.2,0,0,1,2.27,5.48,5.28,5.28,0,0,1-.27.53A4.18,4.18,0,0,1,961.81,412.86Zm-40.94-11.3a171.06,171.06,0,0,0-21.21-1.77,4.19,4.19,0,1,1,.18-8.38,181.9,181.9,0,0,1,22.24,1.85,4.19,4.19,0,0,1-1.21,8.3Zm-42.47-.9a172.19,172.19,0,0,0-21,3.47,4.19,4.19,0,1,1-1.88-8.17,181.18,181.18,0,0,1,22-3.64,4.19,4.19,0,0,1,.86,8.34ZM837,410.15a172.85,172.85,0,0,0-19.51,8.47,4.19,4.19,0,1,1-3.8-7.47,182.5,182.5,0,0,1,20.45-8.88,4.19,4.19,0,0,1,2.86,7.88Zm-37.84,19.26a170.42,170.42,0,0,0-16.84,13,4.19,4.19,0,0,1-5.51-6.32,179.37,179.37,0,0,1,17.67-13.59,4.19,4.19,0,0,1,5.94,5.61A4,4,0,0,1,799.16,429.41Zm-32,27.91A171.72,171.72,0,0,0,754,474a4.19,4.19,0,0,1-6.89-4.77A180.16,180.16,0,0,1,761,451.74a4.19,4.19,0,0,1,6.73,4.92A5,5,0,0,1,767.2,457.32Zm-38.26,56.79a4.2,4.2,0,0,1-2.45-5.4A183.17,183.17,0,0,1,734.28,491c.44-.88.89-1.75,1.34-2.62a4.15,4.15,0,0,1,5.66-1.76,4.2,4.2,0,0,1,1.76,5.66c-.43.81-.85,1.63-1.27,2.47a175.88,175.88,0,0,0-7.44,16.94,3.18,3.18,0,0,1-.32.67A4.18,4.18,0,0,1,728.94,514.11Z" transform="translate(-321.8 -335)"/></g><g class="cls-3"><path class="cls-4" d="M1050.21,666.9a184.17,184.17,0,0,1-12.55,18,4.19,4.19,0,0,1-6.57-5.21,173.6,173.6,0,0,0,12-17.16,4.19,4.19,0,0,1,7.18,4.33Zm4.74-17.31a4.19,4.19,0,0,1-2.06-5.56,175.57,175.57,0,0,0,7.54-19.52,4.19,4.19,0,0,1,8,2.54,185.26,185.26,0,0,1-7.91,20.47l-.21.4A4.2,4.2,0,0,1,1055,649.59Zm-32,51.64a180.65,180.65,0,0,1-16.52,14.42,4.19,4.19,0,0,1-5.13-6.63,174.47,174.47,0,0,0,15.78-13.76,4.19,4.19,0,0,1,6.54,5.12A4.11,4.11,0,0,1,1023,701.23Zm45.89-92.12a4.19,4.19,0,0,1-3.34-4.89,172.83,172.83,0,0,0,2.61-20.77,4.19,4.19,0,1,1,8.36.53,179.26,179.26,0,0,1-2.73,21.78,4.43,4.43,0,0,1-.52,1.37A4.2,4.2,0,0,1,1068.89,609.11ZM988.32,728a182.14,182.14,0,0,1-19.51,10,4.19,4.19,0,1,1-3.37-7.67,174.6,174.6,0,0,0,18.61-9.56,4.19,4.19,0,0,1,4.27,7.21Zm-40.08,17.63a185,185,0,0,1-21.35,5.07,4.19,4.19,0,1,1-1.44-8.26,173.18,173.18,0,0,0,20.37-4.84,4.19,4.19,0,0,1,2.42,8Zm-43.16,7.52a180.57,180.57,0,0,1-22-.2,4.19,4.19,0,1,1,.59-8.36,169.76,169.76,0,0,0,20.92.19,4.19,4.19,0,1,1,.44,8.37Z" transform="translate(-321.8 -335)"/><path class="cls-4" d="M1076,564.22a4.15,4.15,0,0,0,.58-2.39c-.21-3.58-.53-7.16-.94-10.67a4.19,4.19,0,0,0-8.33,1c.4,3.34.7,6.77.91,10.18a4.18,4.18,0,0,0,7.78,1.89Z" transform="translate(-321.8 -335)"/></g><path class="cls-4" d="M1017,510.5a2.13,2.13,0,0,0-2-1.4l-25.82.48a112.17,112.17,0,0,0-24.65-26.83l2.65-25.67a2.15,2.15,0,0,0-1.22-2.15l-28.09-13a2.12,2.12,0,0,0-2.42.45l-17.91,18.58a112.55,112.55,0,0,0-36.41-1.52l-16.29-20a2.12,2.12,0,0,0-2.37-.65l-29.09,10.63a2.13,2.13,0,0,0-1.39,2l.48,25.81a112.27,112.27,0,0,0-26.84,24.66L780,499.21a2.13,2.13,0,0,0-2.14,1.22l-13.05,28.09a2.12,2.12,0,0,0,.45,2.42l18.59,17.91a112.27,112.27,0,0,0-1.52,36.41l-20,16.29a2.12,2.12,0,0,0-.65,2.37L772.24,633a2.11,2.11,0,0,0,2,1.39l25.82-.48a112,112,0,0,0,24.65,26.84l-2.65,25.67a2.13,2.13,0,0,0,1.22,2.14l28.09,13a2.12,2.12,0,0,0,2.42-.45l17.91-18.59a112.27,112.27,0,0,0,36.41,1.52l16.29,20a2.12,2.12,0,0,0,2.37.65l29.09-10.64a2.13,2.13,0,0,0,1.4-2l-.48-25.82a112.17,112.17,0,0,0,26.83-24.65l25.67,2.65a2.13,2.13,0,0,0,2.14-1.22l13-28.09a2.12,2.12,0,0,0-.45-2.42l-18.58-17.91a112.26,112.26,0,0,0,1.51-36.41L1027,542a2.13,2.13,0,0,0,.65-2.38Z" transform="translate(-321.8 -335)"/><path class="cls-5" d="M919.24,591.73a31.51,31.51,0,1,1,2.69-3.85A34.56,34.56,0,0,1,919.24,591.73Zm-39.3-1.88a23.31,23.31,0,0,0,32.79-3.4h0a23.31,23.31,0,1,0-36.19-29.39,23.91,23.91,0,0,0-2,2.8A23.35,23.35,0,0,0,879.94,589.85Z" transform="translate(-321.8 -335)"/><path class="cls-5" d="M961.84,612.27q2-3.42,3.74-7.1A79,79,0,0,0,970.85,590c0-.24.11-.47.16-.71a4.2,4.2,0,0,0-1.94-4.53,4.5,4.5,0,0,0-1.22-.48,4.2,4.2,0,0,0-5,3.16A70.64,70.64,0,0,1,958,601.64h0c-.11.25-.23.5-.35.75A69.82,69.82,0,0,1,935.56,629a71,71,0,0,1-16.73,9l-.15.06-.45.16a70.07,70.07,0,0,1-53.94-2.27,68.84,68.84,0,0,1-6.43-3.38,70.55,70.55,0,0,1,65.85-124.59,68.31,68.31,0,0,1,6.34,3.35,70.22,70.22,0,0,1,22.31,21,4.28,4.28,0,0,0,1.33,1.25,4.19,4.19,0,0,0,5.6-6,78.73,78.73,0,0,0-24.95-23.48q-3.45-2-7.09-3.74a78.93,78.93,0,1,0,34.59,111.93Z" transform="translate(-321.8 -335)"/><path class="cls-4" d="M2077.72,536.05c4-8.82-5.81-17.58-14.19-12.7-85.1,49.55-298.53,207.46-336,560.85-47,443.39-173.11,580-307.08,650.21,0,0,164-9.71,297.45-147.09C2045.62,1250,2006.33,693,2077.72,536.05Z" transform="translate(-321.8 -335)"/><path class="cls-6" d="M1993.42,658.47c-19.83,46-38.74,92.35-55.93,139.33q-26.15,70.32-47.94,142.1c-14.32,47.87-27.73,96-39.09,144.64-11.57,48.58-21,97.6-30.38,146.85-9.6,49.18-19,98.77-33.51,147.54s-34.9,96.44-63.49,139c-7.14,10.61-14.5,21.13-22.4,31.12-7.73,10.13-15.91,19.93-24.25,29.58a547.14,547.14,0,0,1-54.26,54c-38.82,33.32-82.68,60.7-128.9,81.77A9.68,9.68,0,0,1,1485,1697l0,0c11.1-5.44,22.12-11,32.85-17,5.42-2.94,10.7-6.1,16-9.17,5.21-3.27,10.55-6.33,15.65-9.75a510,510,0,0,0,58.81-44.27c37.09-32.09,69.58-69.89,97-110.53A488,488,0,0,0,1741,1442a552.39,552.39,0,0,0,26-69c14.44-47.26,24.15-96.27,34.11-145.37s20.44-98.36,32.86-147.13q9.22-36.59,19.74-72.83c3.44-12.09,7.11-24.12,10.76-36.15s7.6-24,11.52-35.92q23.7-71.6,51.76-141.58c18.94-46.53,39.1-92.54,61-137.7a2.6,2.6,0,0,1,4.73,2.16Z" transform="translate(-321.8 -335)"/><path class="cls-7" d="M1782.13,1878.23c4.63,17.25,25.39,24.17,39.59,13.32,78.35-59.83,284.59-249,294.9-589.21,8.69-287.27,40.71-442.22,60.12-511.55,4.1-14.66-12.89-26-24.9-16.68C2019.35,877.36,1614.13,1253,1782.13,1878.23Z" transform="translate(-321.8 -335)"/><path class="cls-6" d="M1806.22,1880.42a6.62,6.62,0,0,0,1.13.73,7,7,0,0,0,9.41-3c2-3.88,201.23-392.36,231.37-791.24a7,7,0,1,0-13.91-1c-29.92,396-227.86,782-229.85,785.87A7,7,0,0,0,1806.22,1880.42Z" transform="translate(-321.8 -335)"/><path class="cls-8" d="M413,1440.11l16.27,506.23c2.84,88.27,75.28,158.52,164,159l1212.25,7.14c59.3.35,109.82-42.74,118.48-101.13,19-127.84,43.11-356.58,15.91-571.28Z" transform="translate(-321.8 -335)"/><path class="cls-9" d="M1777.84,2081.13a1.12,1.12,0,0,1,0-2.23c2.2,0,4.44-.13,6.64-.29a1.12,1.12,0,0,1,.16,2.23c-2.24.16-4.52.26-6.76.29Zm-15.66-.06h0l-6.71,0a1.12,1.12,0,0,1,0-2.24h0l6.71,0a1.12,1.12,0,0,1,0,2.24Zm-22.36-.13h0l-6.7,0a1.12,1.12,0,1,1,0-2.24h0l6.71,0a1.12,1.12,0,0,1,0,2.24Zm-22.36-.14h0l-6.71,0a1.12,1.12,0,1,1,0-2.23h0l6.71,0a1.12,1.12,0,0,1,0,2.23Zm-22.36-.13h0l-6.71,0a1.11,1.11,0,0,1-1.11-1.12,1.09,1.09,0,0,1,1.12-1.11l6.71,0a1.12,1.12,0,0,1,0,2.23Zm-22.37-.13h0l-6.71,0a1.12,1.12,0,0,1,0-2.23h0l6.71,0a1.12,1.12,0,0,1,0,2.24Zm-22.36-.13h0l-6.71,0a1.12,1.12,0,0,1,0-2.24h0l6.71,0a1.12,1.12,0,0,1,0,2.24Zm-22.36-.13h0l-6.7,0a1.12,1.12,0,1,1,0-2.24l6.71,0a1.12,1.12,0,0,1,0,2.24Zm-22.36-.13h0l-6.71,0a1.12,1.12,0,0,1,0-2.24h0l6.7,0a1.12,1.12,0,1,1,0,2.24Zm-22.36-.14h0l-6.71,0a1.12,1.12,0,1,1,0-2.23h0l6.71,0a1.12,1.12,0,0,1,0,2.23Zm-22.37-.13h0l-6.71,0a1.12,1.12,0,0,1,0-2.23h0l6.71,0a1.12,1.12,0,0,1,0,2.23Zm-22.36-.13h0l-6.71,0a1.12,1.12,0,0,1,0-2.24h0l6.71,0a1.12,1.12,0,0,1,0,2.24Zm-22.36-.13h0l-6.71,0a1.12,1.12,0,0,1,0-2.24h0l6.71,0a1.12,1.12,0,0,1,0,2.24Zm-22.36-.13h0l-6.71,0a1.12,1.12,0,0,1,0-2.24h0l6.7,0a1.12,1.12,0,1,1,0,2.24Zm-22.37-.14h0l-6.71,0a1.1,1.1,0,0,1-1.11-1.12,1.2,1.2,0,0,1,1.12-1.11l6.71,0a1.12,1.12,0,0,1,0,2.23Zm-22.36-.13h0l-6.71,0a1.12,1.12,0,0,1,0-2.23h0l6.71,0a1.12,1.12,0,1,1,0,2.23Zm-22.36-.13h0l-6.71,0a1.12,1.12,0,1,1,0-2.23h0l6.71,0a1.12,1.12,0,0,1,1.11,1.13A1.11,1.11,0,0,1,1426.75,2079.09Zm-22.36-.13h0l-6.71,0a1.12,1.12,0,0,1,0-2.24h0l6.71,0a1.12,1.12,0,0,1,0,2.24Zm-22.36-.13h0l-6.71,0a1.12,1.12,0,0,1,0-2.24h0l6.71,0a1.12,1.12,0,0,1,0,2.24Zm-22.37-.13h0l-6.71,0a1.12,1.12,0,0,1,0-2.24h0l6.71,0a1.12,1.12,0,0,1,0,2.24Zm440.35-.08a1.12,1.12,0,0,1-.23-2.21c2.15-.46,4.33-1,6.46-1.59a1.12,1.12,0,0,1,.6,2.16c-2.18.6-4.4,1.15-6.59,1.62Zm-462.71-.06h0l-6.7,0a1.12,1.12,0,0,1,0-2.23h0l6.71,0a1.12,1.12,0,1,1,0,2.23Zm-22.36-.13h0l-6.7,0a1.12,1.12,0,1,1,0-2.23h0l6.71,0a1.11,1.11,0,0,1,1.11,1.12A1.12,1.12,0,0,1,1314.94,2078.43Zm-22.36-.13h0l-6.71,0a1.12,1.12,0,0,1,0-2.24h0l6.7,0a1.12,1.12,0,1,1,0,2.24Zm-22.36-.13h0l-6.71,0a1.12,1.12,0,0,1,0-2.24h0l6.71,0a1.12,1.12,0,0,1,0,2.24Zm-22.37-.13h0l-6.71,0a1.12,1.12,0,0,1-1.11-1.13,1.05,1.05,0,0,1,1.12-1.11l6.71,0a1.12,1.12,0,0,1,0,2.24Zm-22.36-.13h0l-6.71,0a1.12,1.12,0,0,1,0-2.24h0l6.71,0a1.12,1.12,0,0,1,0,2.24Zm-22.36-.14h0l-6.71,0a1.12,1.12,0,0,1,0-2.23h0l6.71,0a1.12,1.12,0,0,1,0,2.23Zm-22.36-.13h0l-6.71,0a1.12,1.12,0,1,1,0-2.23h0l6.7,0a1.12,1.12,0,1,1,0,2.24Zm-22.36-.13h0l-6.71,0a1.12,1.12,0,0,1,0-2.24h0l6.71,0a1.12,1.12,0,0,1,0,2.24Zm-22.37-.13h0l-6.71,0a1.12,1.12,0,0,1,0-2.24h0l6.71,0a1.12,1.12,0,0,1,0,2.24Zm-22.36-.13h0l-6.71,0a1.13,1.13,0,0,1-1.11-1.13A1.16,1.16,0,0,1,1107,2075l6.71,0a1.12,1.12,0,0,1,0,2.24Zm-22.36-.14h0l-6.71,0a1.12,1.12,0,1,1,0-2.23h0l6.71,0a1.12,1.12,0,1,1,0,2.23ZM1069,2077h0l-6.71,0a1.12,1.12,0,1,1,0-2.23h0l6.71,0a1.12,1.12,0,1,1,0,2.23Zm-22.37-.13h0l-6.71,0a1.12,1.12,0,0,1,0-2.24h0l6.71,0a1.12,1.12,0,0,1,0,2.24Zm-22.36-.13h0l-6.71,0a1.12,1.12,0,1,1,0-2.24h0l6.71,0a1.12,1.12,0,0,1,0,2.24Zm-22.36-.13h0l-6.71,0a1.12,1.12,0,0,1,0-2.24h0l6.71,0a1.12,1.12,0,0,1,0,2.24Zm-22.36-.14h0l-6.71,0a1.12,1.12,0,0,1,0-2.24h0l6.71,0a1.12,1.12,0,1,1,0,2.23Zm-22.36-.13h0l-6.71,0a1.12,1.12,0,1,1,0-2.23h0l6.71,0a1.12,1.12,0,0,1,0,2.23Zm-22.37-.13h0l-6.71,0a1.12,1.12,0,0,1,0-2.23h0l6.71,0a1.12,1.12,0,0,1,0,2.23Zm-22.36-.13h0l-6.7,0a1.12,1.12,0,0,1-1.12-1.12,1.07,1.07,0,0,1,1.13-1.12l6.71,0a1.12,1.12,0,0,1,0,2.24Zm-22.36-.13h0l-6.71,0a1.12,1.12,0,0,1,0-2.24h0l6.71,0a1.12,1.12,0,0,1,0,2.24Zm-22.36-.13h0l-6.71,0a1.12,1.12,0,0,1,0-2.24h0l6.71,0a1.12,1.12,0,0,1,0,2.24Zm-22.36-.14h0l-6.71,0a1.12,1.12,0,0,1-1.11-1.13,1.07,1.07,0,0,1,1.12-1.11l6.71,0a1.12,1.12,0,0,1,0,2.23Zm-22.37-.13h0l-6.71,0a1.12,1.12,0,0,1,0-2.23h0l6.71,0a1.12,1.12,0,0,1,0,2.23Zm-22.36-.13h0l-6.7,0a1.12,1.12,0,0,1,0-2.24h0l6.71,0a1.12,1.12,0,0,1,0,2.24Zm-22.36-.13h0l-6.71,0a1.12,1.12,0,0,1,0-2.24h0l6.7,0a1.12,1.12,0,1,1,0,2.24Zm-22.36-.13h0l-6.71,0a1.12,1.12,0,0,1,0-2.24h0l6.71,0a1.12,1.12,0,0,1,0,2.24Zm-22.37-.14h0l-6.71,0a1.12,1.12,0,0,1,0-2.24h0l6.71,0a1.12,1.12,0,0,1,0,2.23Zm-22.36-.13h0l-6.71,0a1.12,1.12,0,0,1,0-2.23h0l6.71,0a1.12,1.12,0,1,1,0,2.23Zm-22.36-.13h0l-6.71,0a1.12,1.12,0,0,1-1.11-1.12,1.16,1.16,0,0,1,1.13-1.11l6.71,0a1.12,1.12,0,0,1,0,2.23Zm-22.36-.13h0l-6.71,0a1.12,1.12,0,0,1,0-2.24h0l6.71,0a1.12,1.12,0,1,1,0,2.24Zm-22.37-.13h0l-6.71,0a1.12,1.12,0,0,1,0-2.24h0l6.71,0a1.12,1.12,0,0,1,0,2.24Zm-22.36-.13h0q-3.4,0-6.76-.19a1.12,1.12,0,0,1-1.06-1.17,1.1,1.1,0,0,1,1.17-1.06q3.32.17,6.66.18a1.12,1.12,0,0,1,0,2.24Zm-22.27-1.7-.16,0q-3.36-.49-6.66-1.12a1.12,1.12,0,1,1,.42-2.2q3.26.63,6.56,1.11a1.12,1.12,0,0,1-.16,2.23Zm1221.85-.84a1.12,1.12,0,0,1-.45-2.15c2-.87,4.06-1.82,6-2.82a1.12,1.12,0,1,1,1,2c-2,1-4.07,2-6.13,2.88A1.2,1.2,0,0,1,1821.29,2071.81Zm-1243.66-4a1.25,1.25,0,0,1-.32-.05q-3.24-1-6.43-2.06a1.12,1.12,0,0,1,.73-2.12q3.15,1.1,6.34,2a1.12,1.12,0,0,1-.32,2.19ZM1840.81,2061a1.13,1.13,0,0,1-.92-.48,1.12,1.12,0,0,1,.28-1.56c1.81-1.25,3.6-2.58,5.35-3.94a1.12,1.12,0,1,1,1.38,1.76c-1.78,1.39-3.61,2.74-5.45,4A1.18,1.18,0,0,1,1840.81,2061Zm-1284.08-1a1.1,1.1,0,0,1-.47-.1c-2-1-4.07-1.93-6.06-3a1.1,1.1,0,0,1-.48-1.5,1.11,1.11,0,0,1,1.5-.49q3,1.53,6,2.91a1.12,1.12,0,0,1-.46,2.14Zm-19.56-10.77a1.06,1.06,0,0,1-.61-.18c-1.88-1.22-3.75-2.48-5.58-3.78a1.12,1.12,0,1,1,1.29-1.83c1.81,1.29,3.65,2.53,5.51,3.74a1.11,1.11,0,0,1-.61,2.05Zm1320.65-2.67a1.08,1.08,0,0,1-.77-.31,1.11,1.11,0,0,1,0-1.58c1.53-1.58,3-3.23,4.47-4.91a1.11,1.11,0,0,1,1.57-.12,1.12,1.12,0,0,1,.13,1.58c-1.47,1.71-3,3.39-4.56,5A1.1,1.1,0,0,1,1857.82,2046.5ZM519.33,2035.75a1.09,1.09,0,0,1-.74-.28c-1.69-1.48-3.36-3-5-4.54a1.11,1.11,0,1,1,1.53-1.62q2.43,2.3,4.93,4.48a1.12,1.12,0,0,1-.73,2ZM1871.66,2029a1.12,1.12,0,0,1-.94-1.72c1.19-1.85,2.34-3.77,3.41-5.69a1.12,1.12,0,1,1,1.95,1.09c-1.09,2-2.26,3.92-3.48,5.81A1.11,1.11,0,0,1,1871.66,2029Zm-1368.1-9.07a1.1,1.1,0,0,1-.85-.39c-1.47-1.7-2.91-3.44-4.31-5.2a1.12,1.12,0,0,1,.18-1.57,1.11,1.11,0,0,1,1.57.18q2.07,2.61,4.25,5.13a1.1,1.1,0,0,1-.11,1.57A1.08,1.08,0,0,1,503.56,2019.93Zm1378.21-10.82a1.13,1.13,0,0,1-1-1.52c.79-2.06,1.54-4.17,2.21-6.26a1.13,1.13,0,0,1,1.41-.73,1.12,1.12,0,0,1,.72,1.41c-.68,2.14-1.44,4.29-2.26,6.38A1.11,1.11,0,0,1,1881.77,2009.11ZM490.19,2002a1.12,1.12,0,0,1-.95-.52c-1.21-1.89-2.39-3.82-3.52-5.77a1.1,1.1,0,0,1,.4-1.52,1.12,1.12,0,0,1,1.53.4q1.68,2.88,3.48,5.69a1.12,1.12,0,0,1-.34,1.54A1.13,1.13,0,0,1,490.19,2002Zm1397.55-14.43-.2,0a1.11,1.11,0,0,1-.91-1.29c.16-.89.3-1.78.43-2.67l.58-3.94a1.14,1.14,0,0,1,1.27-.94,1.12,1.12,0,0,1,.94,1.27l-.58,3.93c-.13.92-.28,1.83-.43,2.73A1.12,1.12,0,0,1,1887.74,1987.6ZM479.5,1982.4a1.12,1.12,0,0,1-1-.65c-.93-2-1.82-4.13-2.67-6.22a1.12,1.12,0,1,1,2.08-.84c.83,2.06,1.7,4.11,2.62,6.13a1.11,1.11,0,0,1-.55,1.48A1.09,1.09,0,0,1,479.5,1982.4ZM1891,1965.47h-.16a1.13,1.13,0,0,1-1-1.27l.93-6.64a1.12,1.12,0,0,1,1.26-1,1.1,1.1,0,0,1,1,1.25l-.92,6.66A1.13,1.13,0,0,1,1891,1965.47Zm-1419.23-4a1.12,1.12,0,0,1-1.07-.81c-.63-2.16-1.21-4.33-1.74-6.53a1.11,1.11,0,0,1,.82-1.35,1.13,1.13,0,0,1,1.35.83c.52,2.16,1.1,4.3,1.72,6.43a1.14,1.14,0,0,1-1.08,1.43ZM1894,1943.3h-.15a1.11,1.11,0,0,1-1-1.25l.87-6.65a1.12,1.12,0,0,1,2.22.28l-.87,6.66A1.13,1.13,0,0,1,1894,1943.3Zm-1426.9-3.71a1.11,1.11,0,0,1-1.1-1q-.47-3.33-.79-6.71a1.12,1.12,0,0,1,2.23-.21q.31,3.33.77,6.61a1.11,1.11,0,0,1-.95,1.26Zm1429.72-18.48h-.14a1.12,1.12,0,0,1-1-1.24l.81-6.66a1.16,1.16,0,0,1,1.25-1,1.12,1.12,0,0,1,1,1.25l-.81,6.66A1.11,1.11,0,0,1,1896.8,1921.11Zm-1431.32-3.8a1.11,1.11,0,0,1-1.11-1.08l-.22-6.71a1.12,1.12,0,0,1,2.24-.07l.21,6.7a1.12,1.12,0,0,1-1.08,1.16Zm1433.94-18.41h-.13a1.11,1.11,0,0,1-1-1.23q.38-3.32.75-6.67a1.13,1.13,0,0,1,1.23-1,1.12,1.12,0,0,1,1,1.24c-.24,2.23-.5,4.46-.75,6.67A1.11,1.11,0,0,1,1899.42,1898.9ZM464.77,1895a1.12,1.12,0,0,1-1.12-1.09l-.22-6.7a1.13,1.13,0,0,1,1.09-1.16,1.09,1.09,0,0,1,1.15,1.09l.21,6.7a1.12,1.12,0,0,1-1.08,1.16Zm1437.09-18.29h-.12a1.12,1.12,0,0,1-1-1.23l.69-6.67a1.12,1.12,0,1,1,2.23.23l-.69,6.67A1.12,1.12,0,0,1,1901.86,1876.67Zm-1437.81-4.06a1.13,1.13,0,0,1-1.12-1.09l-.22-6.7a1.11,1.11,0,0,1,1.08-1.15h0a1.13,1.13,0,0,1,1.12,1.09l.21,6.7a1.1,1.1,0,0,1-1.08,1.15Zm1440-18.2h-.1a1.12,1.12,0,0,1-1-1.22c.21-2.22.42-4.44.63-6.68a1.14,1.14,0,0,1,1.22-1,1.12,1.12,0,0,1,1,1.22c-.21,2.24-.42,4.46-.63,6.68A1.13,1.13,0,0,1,1904.09,1854.41Zm-1440.76-4.16a1.12,1.12,0,0,1-1.12-1.08l-.22-6.7a1.13,1.13,0,0,1,1.09-1.16,1.11,1.11,0,0,1,1.15,1.09l.22,6.7a1.12,1.12,0,0,1-1.09,1.15Zm1442.81-18.11h-.1a1.11,1.11,0,0,1-1-1.21q.3-3.32.58-6.68a1.14,1.14,0,0,1,1.2-1,1.11,1.11,0,0,1,1,1.21c-.18,2.24-.38,4.47-.57,6.69A1.12,1.12,0,0,1,1906.14,1832.14ZM462.61,1827.9a1.12,1.12,0,0,1-1.12-1.08l-.21-6.7a1.12,1.12,0,0,1,1.08-1.16h0a1.12,1.12,0,0,1,1.12,1.08l.22,6.71a1.12,1.12,0,0,1-1.08,1.15ZM1908,1809.85h-.09a1.11,1.11,0,0,1-1-1.2l.51-6.69a1.12,1.12,0,1,1,2.23.17l-.51,6.7A1.13,1.13,0,0,1,1908,1809.85Zm-1446.09-4.3a1.12,1.12,0,0,1-1.12-1.08l-.21-6.7a1.12,1.12,0,1,1,2.23-.08l.22,6.71a1.12,1.12,0,0,1-1.08,1.15Zm1447.73-18h-.08a1.13,1.13,0,0,1-1-1.19q.24-3.35.45-6.69a1.12,1.12,0,1,1,2.24.14l-.45,6.7A1.13,1.13,0,0,1,1909.62,1787.54ZM461.17,1783.2a1.12,1.12,0,0,1-1.12-1.08l-.21-6.71a1.12,1.12,0,0,1,1.08-1.15,1,1,0,0,1,1.15,1.08l.22,6.71a1.12,1.12,0,0,1-1.08,1.15Zm1449.88-18H1911a1.13,1.13,0,0,1-1-1.18l.39-6.7a1.06,1.06,0,0,1,1.18-1,1.11,1.11,0,0,1,1,1.18l-.39,6.7A1.11,1.11,0,0,1,1911.05,1765.22Zm-1450.6-4.37a1.11,1.11,0,0,1-1.11-1.08l-.22-6.71a1.12,1.12,0,0,1,1.08-1.15,1.14,1.14,0,0,1,1.16,1.08l.21,6.71a1.12,1.12,0,0,1-1.08,1.15Zm1451.82-18h-.06a1.13,1.13,0,0,1-1.06-1.18l.32-6.69a1.12,1.12,0,0,1,2.24.1l-.33,6.71A1.12,1.12,0,0,1,1912.27,1742.89ZM459.74,1738.5a1.12,1.12,0,0,1-1.12-1.08l-.22-6.71a1.12,1.12,0,0,1,1.08-1.15,1.06,1.06,0,0,1,1.16,1.08l.21,6.71a1.12,1.12,0,0,1-1.08,1.15Zm1453.52-18h0a1.12,1.12,0,0,1-1.08-1.16l.26-6.7a1.11,1.11,0,0,1,1.16-1.07,1.1,1.1,0,0,1,1.07,1.15l-.25,6.71A1.12,1.12,0,0,1,1913.26,1720.54ZM459,1716.15a1.12,1.12,0,0,1-1.12-1.08l-.22-6.71a1.12,1.12,0,0,1,1.09-1.15,1.15,1.15,0,0,1,1.15,1.08l.22,6.7a1.13,1.13,0,0,1-1.09,1.16Zm1455-18h0a1.13,1.13,0,0,1-1.09-1.15q.1-3.35.19-6.7a1.16,1.16,0,0,1,1.14-1.09,1.11,1.11,0,0,1,1.09,1.14c0,2.25-.12,4.48-.18,6.72A1.12,1.12,0,0,1,1914,1698.19ZM458.3,1693.8a1.13,1.13,0,0,1-1.12-1.09L457,1686a1.12,1.12,0,0,1,1.09-1.15h0a1.12,1.12,0,0,1,1.12,1.08l.22,6.7a1.13,1.13,0,0,1-1.09,1.16Zm1456.26-18h0a1.12,1.12,0,0,1-1.09-1.14l.11-6.7a1.12,1.12,0,0,1,1.12-1.1h0a1.12,1.12,0,0,1,1.1,1.13l-.12,6.71A1.12,1.12,0,0,1,1914.56,1675.83Zm-1457-4.38a1.13,1.13,0,0,1-1.12-1.09l-.21-6.7a1.13,1.13,0,0,1,1.08-1.16,1.11,1.11,0,0,1,1.15,1.09l.22,6.7a1.13,1.13,0,0,1-1.09,1.16Zm1457.27-18h0a1.13,1.13,0,0,1-1.11-1.13q0-3.35,0-6.69a1.13,1.13,0,0,1,1.12-1.12h0a1.12,1.12,0,0,1,1.11,1.13c0,2.23,0,4.47,0,6.7A1.12,1.12,0,0,1,1914.85,1653.47Zm-1458-4.37a1.13,1.13,0,0,1-1.12-1.09l-.21-6.7a1.12,1.12,0,0,1,2.23-.07l.22,6.7a1.11,1.11,0,0,1-1.09,1.15Zm1458-18a1.13,1.13,0,0,1-1.12-1.11c0-2.23,0-4.47,0-6.7a1.13,1.13,0,0,1,1.11-1.13h0a1.12,1.12,0,0,1,1.12,1.11q0,3.36,0,6.71a1.12,1.12,0,0,1-1.11,1.12Zm-1458.75-4.38a1.12,1.12,0,0,1-1.12-1.08l-.21-6.7a1.12,1.12,0,0,1,2.24-.08l.21,6.71a1.12,1.12,0,0,1-1.08,1.15Zm1458.53-18a1.12,1.12,0,0,1-1.12-1.1l-.12-6.7a1.12,1.12,0,0,1,1.09-1.14,1.07,1.07,0,0,1,1.14,1.09q.08,3.36.12,6.71a1.12,1.12,0,0,1-1.1,1.14Zm-1459.25-4.38a1.12,1.12,0,0,1-1.12-1.08l-.21-6.7a1.12,1.12,0,0,1,2.24-.08l.21,6.71a1.11,1.11,0,0,1-1.08,1.15Zm1458.75-18a1.12,1.12,0,0,1-1.12-1.09q-.09-3.35-.21-6.69a1.13,1.13,0,0,1,1.08-1.16,1.05,1.05,0,0,1,1.16,1.08c.07,2.24.14,4.47.2,6.71a1.11,1.11,0,0,1-1.08,1.15ZM454.7,1582a1.11,1.11,0,0,1-1.11-1.08l-.22-6.7a1.13,1.13,0,0,1,1.08-1.16,1.09,1.09,0,0,1,1.16,1.08l.21,6.71a1.12,1.12,0,0,1-1.08,1.15Zm1458.68-18a1.11,1.11,0,0,1-1.11-1.07l-.29-6.7a1.12,1.12,0,0,1,1.06-1.17,1.05,1.05,0,0,1,1.17,1.07l.29,6.7a1.12,1.12,0,0,1-1.07,1.17ZM454,1559.69a1.12,1.12,0,0,1-1.12-1.08l-.22-6.71a1.12,1.12,0,0,1,1.08-1.15,1.14,1.14,0,0,1,1.16,1.08l.21,6.71a1.12,1.12,0,0,1-1.08,1.15Zm1458.31-18a1.11,1.11,0,0,1-1.11-1l-.39-6.7a1.12,1.12,0,0,1,1-1.18,1.16,1.16,0,0,1,1.18,1l.39,6.7a1.12,1.12,0,0,1-1.06,1.18Zm-1459-4.4a1.12,1.12,0,0,1-1.12-1.08l-.22-6.71a1.12,1.12,0,0,1,1.08-1.15,1.07,1.07,0,0,1,1.16,1.08l.22,6.71a1.12,1.12,0,0,1-1.09,1.15Zm1457.64-17.91a1.14,1.14,0,0,1-1.12-1q-.22-3.35-.48-6.69a1.12,1.12,0,0,1,2.24-.17l.48,6.7a1.12,1.12,0,0,1-1,1.19ZM452.55,1515a1.12,1.12,0,0,1-1.12-1.08l-.22-6.71a1.12,1.12,0,0,1,1.09-1.15,1.08,1.08,0,0,1,1.15,1.08l.22,6.7a1.13,1.13,0,0,1-1.08,1.16Zm1456.64-17.86a1.11,1.11,0,0,1-1.11-1q-.28-3.34-.59-6.68a1.13,1.13,0,0,1,1-1.22,1.14,1.14,0,0,1,1.21,1q.3,3.35.58,6.69a1.12,1.12,0,0,1-1,1.21Zm-1457.36-4.49a1.12,1.12,0,0,1-1.12-1.08l-.21-6.71a1.11,1.11,0,0,1,1.08-1.15h0a1.12,1.12,0,0,1,1.12,1.08l.22,6.7a1.13,1.13,0,0,1-1.08,1.16Zm1455.29-17.78a1.12,1.12,0,0,1-1.11-1q-.33-3.34-.68-6.67a1.12,1.12,0,0,1,2.22-.24l.69,6.68a1.13,1.13,0,0,1-1,1.23Zm-1456-4.57a1.13,1.13,0,0,1-1.12-1.09l-.21-6.7a1.11,1.11,0,0,1,1.08-1.15,1.1,1.1,0,0,1,1.15,1.08l.22,6.7a1.13,1.13,0,0,1-1.08,1.16Zm1453.59-17.66a1.12,1.12,0,0,1-1.11-1q-.39-3.33-.8-6.66a1.12,1.12,0,0,1,2.22-.27q.4,3.33.8,6.67a1.12,1.12,0,0,1-1,1.24Zm-1454.31-4.69a1.11,1.11,0,0,1-1.11-1.09l-.22-6.7a1.11,1.11,0,0,1,1.08-1.15h0a1.13,1.13,0,0,1,1.12,1.09l.21,6.7a1.12,1.12,0,0,1-1.08,1.16Zm1442-6.71h-6.71a1.12,1.12,0,1,1,0-2.24h6.71a1.12,1.12,0,0,1,0,2.24Zm-22.37,0h-6.7a1.12,1.12,0,1,1,0-2.24h6.7a1.12,1.12,0,1,1,0,2.24Zm-22.36,0H1841a1.12,1.12,0,1,1,0-2.24h6.71a1.12,1.12,0,1,1,0,2.24Zm-22.36,0h-6.71a1.12,1.12,0,1,1,0-2.24h6.71a1.12,1.12,0,1,1,0,2.24Zm-22.36,0h-6.71a1.12,1.12,0,1,1,0-2.24H1803a1.12,1.12,0,0,1,0,2.24Zm-22.37,0h-6.71a1.12,1.12,0,0,1,0-2.24h6.71a1.12,1.12,0,1,1,0,2.24Zm-22.36,0h-6.71a1.12,1.12,0,1,1,0-2.24h6.71a1.12,1.12,0,1,1,0,2.24Zm-22.36,0h-6.71a1.12,1.12,0,1,1,0-2.24h6.71a1.12,1.12,0,1,1,0,2.24Zm-22.36,0h-6.71a1.12,1.12,0,1,1,0-2.24h6.71a1.12,1.12,0,0,1,0,2.24Zm-22.37,0h-6.71a1.12,1.12,0,0,1,0-2.24h6.71a1.12,1.12,0,0,1,0,2.24Zm-22.36,0h-6.71a1.12,1.12,0,1,1,0-2.24h6.71a1.12,1.12,0,1,1,0,2.24Zm-22.36,0h-6.71a1.12,1.12,0,0,1,0-2.24h6.71a1.12,1.12,0,0,1,0,2.24Zm-22.36,0h-6.71a1.12,1.12,0,1,1,0-2.24h6.71a1.12,1.12,0,0,1,0,2.24Zm-22.37,0H1595a1.12,1.12,0,0,1,0-2.24h6.71a1.12,1.12,0,0,1,0,2.24Zm-22.36,0h-6.71a1.12,1.12,0,0,1,0-2.24h6.71a1.12,1.12,0,1,1,0,2.24Zm-22.36,0h-6.71a1.12,1.12,0,1,1,0-2.24H1557a1.12,1.12,0,0,1,0,2.24Zm-22.36,0h-6.71a1.12,1.12,0,0,1,0-2.24h6.71a1.12,1.12,0,0,1,0,2.24Zm-22.37,0h-6.71a1.12,1.12,0,0,1,0-2.24h6.71a1.12,1.12,0,1,1,0,2.24Zm-22.36,0h-6.71a1.12,1.12,0,1,1,0-2.24h6.71a1.12,1.12,0,1,1,0,2.24Zm-22.36,0h-6.71a1.12,1.12,0,1,1,0-2.24h6.71a1.12,1.12,0,1,1,0,2.24Zm-22.37,0h-6.7a1.12,1.12,0,1,1,0-2.24h6.7a1.12,1.12,0,0,1,0,2.24Zm-22.36,0h-6.71a1.12,1.12,0,0,1,0-2.24h6.71a1.12,1.12,0,1,1,0,2.24Zm-22.36,0h-6.71a1.12,1.12,0,1,1,0-2.24h6.71a1.12,1.12,0,1,1,0,2.24Zm-22.36,0h-6.71a1.12,1.12,0,0,1,0-2.24h6.71a1.12,1.12,0,1,1,0,2.24Zm-22.37,0H1349a1.12,1.12,0,1,1,0-2.24h6.7a1.12,1.12,0,0,1,0,2.24Zm-22.36,0h-6.71a1.12,1.12,0,0,1,0-2.24h6.71a1.12,1.12,0,1,1,0,2.24Zm-22.36,0h-6.71a1.12,1.12,0,1,1,0-2.24H1311a1.12,1.12,0,0,1,0,2.24Zm-22.36,0h-6.71a1.12,1.12,0,0,1,0-2.24h6.71a1.12,1.12,0,0,1,0,2.24Zm-22.37,0h-6.7a1.12,1.12,0,1,1,0-2.24h6.7a1.12,1.12,0,1,1,0,2.24Zm-22.36,0h-6.71a1.12,1.12,0,0,1,0-2.24h6.71a1.12,1.12,0,0,1,0,2.24Zm-22.36,0h-6.71a1.12,1.12,0,1,1,0-2.24h6.71a1.12,1.12,0,1,1,0,2.24Zm-22.36,0h-6.71a1.12,1.12,0,0,1,0-2.24h6.71a1.12,1.12,0,0,1,0,2.24Zm-22.37,0h-6.71a1.12,1.12,0,0,1,0-2.24h6.71a1.12,1.12,0,1,1,0,2.24Zm-22.36,0h-6.71a1.12,1.12,0,1,1,0-2.24h6.71a1.12,1.12,0,1,1,0,2.24Zm-22.36,0h-6.71a1.12,1.12,0,1,1,0-2.24h6.71a1.12,1.12,0,1,1,0,2.24Zm-22.36,0H1103a1.12,1.12,0,1,1,0-2.24h6.71a1.12,1.12,0,0,1,0,2.24Zm-22.37,0h-6.71a1.12,1.12,0,0,1,0-2.24h6.71a1.12,1.12,0,1,1,0,2.24Zm-22.36,0h-6.71a1.12,1.12,0,1,1,0-2.24H1065a1.12,1.12,0,1,1,0,2.24Zm-22.36,0h-6.71a1.12,1.12,0,1,1,0-2.24h6.71a1.12,1.12,0,1,1,0,2.24Zm-22.36,0h-6.71a1.12,1.12,0,1,1,0-2.24h6.71a1.12,1.12,0,0,1,0,2.24Zm-22.37,0h-6.71a1.12,1.12,0,0,1,0-2.24h6.71a1.12,1.12,0,1,1,0,2.24Zm-22.36,0h-6.71a1.12,1.12,0,1,1,0-2.24h6.71a1.12,1.12,0,1,1,0,2.24Zm-22.36,0h-6.71a1.12,1.12,0,1,1,0-2.24h6.71a1.12,1.12,0,1,1,0,2.24Zm-22.36,0h-6.71a1.12,1.12,0,1,1,0-2.24h6.71a1.12,1.12,0,0,1,0,2.24Zm-22.37,0h-6.71a1.12,1.12,0,0,1,0-2.24h6.71a1.12,1.12,0,1,1,0,2.24Zm-22.36,0H879.4a1.12,1.12,0,1,1,0-2.24h6.71a1.12,1.12,0,1,1,0,2.24Zm-22.36,0H857a1.12,1.12,0,1,1,0-2.24h6.71a1.12,1.12,0,1,1,0,2.24Zm-22.37,0h-6.7a1.12,1.12,0,1,1,0-2.24h6.7a1.12,1.12,0,1,1,0,2.24Zm-22.36,0h-6.71a1.12,1.12,0,0,1,0-2.24H819a1.12,1.12,0,1,1,0,2.24Zm-22.36,0H790a1.12,1.12,0,1,1,0-2.24h6.71a1.12,1.12,0,1,1,0,2.24Zm-22.36,0h-6.71a1.12,1.12,0,1,1,0-2.24h6.71a1.12,1.12,0,1,1,0,2.24Zm-22.37,0h-6.7a1.12,1.12,0,1,1,0-2.24h6.7a1.12,1.12,0,1,1,0,2.24Zm-22.36,0h-6.71a1.12,1.12,0,0,1,0-2.24h6.71a1.12,1.12,0,1,1,0,2.24Zm-22.36,0H700.5a1.12,1.12,0,1,1,0-2.24h6.71a1.12,1.12,0,1,1,0,2.24Zm-22.36,0h-6.71a1.12,1.12,0,1,1,0-2.24h6.71a1.12,1.12,0,0,1,0,2.24Zm-22.37,0h-6.71a1.12,1.12,0,0,1,0-2.24h6.71a1.12,1.12,0,1,1,0,2.24Zm-22.36,0h-6.71a1.12,1.12,0,1,1,0-2.24h6.71a1.12,1.12,0,1,1,0,2.24Zm-22.36,0h-6.71a1.12,1.12,0,1,1,0-2.24h6.71a1.12,1.12,0,1,1,0,2.24Zm-22.37,0h-6.7a1.12,1.12,0,1,1,0-2.24h6.7a1.12,1.12,0,1,1,0,2.24Zm-22.36,0h-6.71a1.12,1.12,0,1,1,0-2.24H573a1.12,1.12,0,1,1,0,2.24Zm-22.36,0H544a1.12,1.12,0,1,1,0-2.24h6.71a1.12,1.12,0,1,1,0,2.24Zm-22.36,0H521.6a1.12,1.12,0,1,1,0-2.24h6.71a1.12,1.12,0,0,1,0,2.24Zm-22.37,0h-6.7a1.12,1.12,0,1,1,0-2.24h6.7a1.12,1.12,0,1,1,0,2.24Zm-22.36,0h-6.71a1.12,1.12,0,1,1,0-2.24h6.71a1.12,1.12,0,1,1,0,2.24Zm-22.36,0h-6.71a1.12,1.12,0,1,1,0-2.24h6.71a1.12,1.12,0,1,1,0,2.24Z" transform="translate(-321.8 -335)"/><path class="cls-10" d="M768.25,1072.62l3.65-39a30,30,0,0,1,22.77-17.53c37.76-6,131.43-16.58,176.52,17.12l6.74,45.37Z" transform="translate(-321.8 -335)"/><path class="cls-10" d="M886.23,1035.05a54.14,54.14,0,0,1-26.14,0,23.59,23.59,0,0,1-18-22.86V889.91H904.3v122.15A23.68,23.68,0,0,1,886.23,1035.05Z" transform="translate(-321.8 -335)"/><path class="cls-10" d="M1370.84,1072.62l3.65-39a30,30,0,0,1,22.76-17.53c37.77-6,131.43-16.58,176.53,17.12l6.74,45.37Z" transform="translate(-321.8 -335)"/><path class="cls-10" d="M1488.81,1035.05a54.1,54.1,0,0,1-26.13,0,23.6,23.6,0,0,1-18-22.86V877h62.22v135A23.69,23.69,0,0,1,1488.81,1035.05Z" transform="translate(-321.8 -335)"/><path class="cls-8" d="M835.77,919.87l669.07-22.15a32.25,32.25,0,0,0,30.81-26.47c3.67-21,6.9-52.3,2.08-84.81-5.48-37-37.27-64.42-74.8-65.32-124.82-3-442.57-2.88-617.69,66.4a61.14,61.14,0,0,0-37,42.44c-4.47,18.39-7.45,42.94-1.6,67.94A28.79,28.79,0,0,0,835.77,919.87Z" transform="translate(-321.8 -335)"/><path class="cls-9" d="M824.19,884.39a2.24,2.24,0,0,1-2.23-2c-.1-1-2.53-26.08,4-50.16a55,55,0,0,1,37.51-38.12C900.7,783.17,971.85,764.6,1030,763a2.2,2.2,0,0,1,2.3,2.17,2.25,2.25,0,0,1-2.18,2.3c-57.61,1.61-128.34,20.08-165.38,30.95a50.57,50.57,0,0,0-34.45,35c-6.3,23.3-3.87,48.3-3.85,48.55a2.23,2.23,0,0,1-2,2.45Z" transform="translate(-321.8 -335)"/><path class="cls-11" d="M457.83,1057.41c216.15-2.76,1151.22-12.59,1422.84,20.18a55.31,55.31,0,0,1,47.54,42.83c16,72.56,48.34,241.12,44.51,408.2-.52,22.73-17.19,41.92-39.64,46.17l-620,117.29H1092.82L432.19,1560.77a51.66,51.66,0,0,1-41.65-48c-4.3-84.06-11-281.29,11.72-408.25A57.16,57.16,0,0,1,457.83,1057.41Z" transform="translate(-321.8 -335)"/><path class="cls-12" d="M1299.77,1639.78h-6.71a1.12,1.12,0,0,1,0-2.24h6.71a1.12,1.12,0,0,1,0,2.24Zm-22.37,0h-6.71a1.12,1.12,0,0,1,0-2.24h6.71a1.12,1.12,0,0,1,0,2.24Zm-22.36,0h-6.71a1.12,1.12,0,0,1,0-2.24H1255a1.12,1.12,0,0,1,0,2.24Zm-22.36,0H1226a1.12,1.12,0,0,1,0-2.24h6.71a1.12,1.12,0,0,1,0,2.24Zm-22.36,0h-6.71a1.12,1.12,0,0,1,0-2.24h6.71a1.12,1.12,0,0,1,0,2.24Zm-22.37,0h-6.71a1.12,1.12,0,0,1,0-2.24H1188a1.12,1.12,0,0,1,0,2.24Zm-22.36,0h-6.71a1.12,1.12,0,0,1,0-2.24h6.71a1.12,1.12,0,0,1,0,2.24Zm-22.36,0h-6.71a1.12,1.12,0,0,1,0-2.24h6.71a1.12,1.12,0,0,1,0,2.24Zm-22.37,0h-6.7a1.12,1.12,0,0,1,0-2.24h6.7a1.12,1.12,0,0,1,0,2.24Zm-22.36,0h-.42l-6.8-1.33a1.12,1.12,0,0,1,.44-2.2l6.58,1.31.2,0a1.12,1.12,0,0,1,0,2.24Zm216.79-1.37a1.12,1.12,0,0,1-.21-2.22l6.6-1.25a1.12,1.12,0,0,1,1.3.9,1.11,1.11,0,0,1-.89,1.3l-6.59,1.25Zm-239.14-3-.22,0-6.58-1.31a1.12,1.12,0,0,1,.44-2.2l6.58,1.31a1.12,1.12,0,0,1-.22,2.22Zm261.11-1.17a1.12,1.12,0,0,1-.2-2.22l6.59-1.24a1.12,1.12,0,0,1,1.3.89,1.11,1.11,0,0,1-.89,1.3l-6.59,1.25Zm-283-3.19-.22,0-6.58-1.31a1.12,1.12,0,0,1-.88-1.32,1.1,1.1,0,0,1,1.31-.87l6.58,1.3a1.12,1.12,0,0,1-.21,2.22Zm305-1a1.11,1.11,0,0,1-.2-2.21l6.59-1.25a1.12,1.12,0,0,1,.42,2.2l-6.6,1.24A.75.75,0,0,1,1359.23,1630.09Zm-327-3.39-.22,0-6.58-1.31a1.12,1.12,0,0,1-.87-1.32,1.11,1.11,0,0,1,1.31-.87l6.58,1.3a1.12,1.12,0,0,1-.22,2.22Zm348.93-.76a1.12,1.12,0,0,1-.21-2.22l6.59-1.25a1.13,1.13,0,0,1,1.31.89,1.12,1.12,0,0,1-.89,1.31l-6.59,1.25Zm-370.86-3.6-.22,0-6.58-1.31a1.13,1.13,0,0,1-.88-1.32,1.1,1.1,0,0,1,1.32-.87l6.58,1.3a1.12,1.12,0,0,1-.22,2.22Zm392.83-.56a1.12,1.12,0,0,1-.2-2.22l6.59-1.24a1.11,1.11,0,1,1,.41,2.19l-6.59,1.25ZM988.42,1618l-.22,0-6.58-1.31a1.12,1.12,0,1,1,.43-2.19l6.58,1.3a1.12,1.12,0,0,1-.21,2.22Zm436.73-.36a1.11,1.11,0,0,1-.2-2.21l6.59-1.25a1.12,1.12,0,1,1,.42,2.2l-6.6,1.24A.75.75,0,0,1,1425.15,1617.62Zm-458.67-4-.22,0-6.58-1.31a1.12,1.12,0,0,1,.44-2.19l6.58,1.3a1.12,1.12,0,0,1-.22,2.22Zm480.65-.15a1.12,1.12,0,0,1-.21-2.22l6.59-1.25a1.12,1.12,0,1,1,.42,2.2l-6.59,1.25Zm22-4.16a1.11,1.11,0,0,1-1.1-.91,1.13,1.13,0,0,1,.89-1.31l6.6-1.24a1.12,1.12,0,0,1,1.3.89,1.11,1.11,0,0,1-.89,1.3l-6.59,1.25Zm-524.55,0-.22,0-6.58-1.31a1.12,1.12,0,0,1-.88-1.32,1.1,1.1,0,0,1,1.32-.87l6.58,1.3a1.12,1.12,0,0,1-.22,2.22Zm546.52-4.11a1.11,1.11,0,0,1-.2-2.21l6.59-1.25a1.12,1.12,0,0,1,.41,2.2l-6.59,1.24A.75.75,0,0,1,1491.07,1605.15Zm-568.45-.25-.22,0-6.58-1.31a1.12,1.12,0,1,1,.43-2.19l6.58,1.3a1.12,1.12,0,0,1-.21,2.22ZM1513,1601a1.12,1.12,0,0,1-1.09-.92,1.11,1.11,0,0,1,.89-1.3l6.59-1.25a1.12,1.12,0,1,1,.42,2.2l-6.6,1.25Zm-612.36-.46-.22,0-6.58-1.31a1.12,1.12,0,1,1,.44-2.19l6.58,1.3a1.12,1.12,0,0,1-.22,2.22Zm634.34-3.7a1.11,1.11,0,0,1-1.1-.91,1.13,1.13,0,0,1,.89-1.31l6.59-1.24a1.12,1.12,0,0,1,1.31.89,1.11,1.11,0,0,1-.89,1.3l-6.59,1.25Zm-656.27-.66-.22,0-6.58-1.31a1.12,1.12,0,1,1,.44-2.19L879,1594a1.12,1.12,0,0,1-.22,2.22Zm678.24-3.5a1.11,1.11,0,0,1-.21-2.21l6.6-1.25a1.12,1.12,0,0,1,.41,2.2l-6.59,1.24A.75.75,0,0,1,1557,1592.68Zm-700.17-.86-.22,0-6.58-1.31a1.12,1.12,0,1,1,.43-2.19l6.58,1.3a1.12,1.12,0,0,1-.21,2.22Zm722.14-3.3a1.11,1.11,0,0,1-.2-2.21l6.59-1.25a1.12,1.12,0,1,1,.41,2.2l-6.59,1.24A.75.75,0,0,1,1579,1588.52Zm-744.08-1.06-.22,0-6.58-1.31a1.12,1.12,0,0,1,.44-2.19l6.58,1.31a1.12,1.12,0,0,1-.22,2.21Zm766.06-3.09a1.12,1.12,0,0,1-.21-2.22l6.59-1.25a1.14,1.14,0,0,1,1.31.9,1.11,1.11,0,0,1-.89,1.3l-6.59,1.25Zm-788-1.27-.22,0-6.58-1.31a1.12,1.12,0,1,1,.44-2.19l6.58,1.31a1.12,1.12,0,0,1-.22,2.21Zm810-2.89a1.11,1.11,0,0,1-1.1-.91,1.13,1.13,0,0,1,.89-1.31l6.59-1.24a1.12,1.12,0,0,1,1.31.89,1.11,1.11,0,0,1-.89,1.3l-6.59,1.25ZM791,1578.74l-.22,0-6.58-1.31a1.12,1.12,0,1,1,.43-2.19l6.58,1.31a1.12,1.12,0,0,1-.21,2.21Zm853.86-2.69a1.11,1.11,0,0,1-.2-2.21l6.59-1.25a1.12,1.12,0,0,1,.41,2.2l-6.59,1.24A.75.75,0,0,1,1644.88,1576.05Zm-875.8-1.67-.22,0-6.58-1.31a1.12,1.12,0,0,1-.88-1.31,1.11,1.11,0,0,1,1.32-.88l6.58,1.31a1.12,1.12,0,0,1,.88,1.31A1.13,1.13,0,0,1,769.08,1574.38Zm897.77-2.48a1.12,1.12,0,0,1-.2-2.22l6.59-1.25a1.14,1.14,0,0,1,1.31.89,1.13,1.13,0,0,1-.89,1.31l-6.6,1.25ZM747.15,1570l-.22,0-6.58-1.31a1.12,1.12,0,1,1,.44-2.19l6.58,1.31a1.12,1.12,0,0,1-.22,2.21Zm941.68-2.28a1.12,1.12,0,0,1-.21-2.22l6.59-1.24a1.11,1.11,0,1,1,.42,2.19l-6.59,1.25Zm-963.61-2.08-.23,0-6.58-1.31a1.11,1.11,0,0,1-.87-1.31,1.1,1.1,0,0,1,1.31-.88l6.58,1.31a1.12,1.12,0,0,1-.21,2.21Zm985.58-2.08a1.11,1.11,0,0,1-.2-2.21l6.59-1.25a1.12,1.12,0,0,1,.41,2.2l-6.59,1.24A.75.75,0,0,1,1710.8,1563.58ZM703.28,1561.3l-.22,0-6.58-1.31a1.12,1.12,0,1,1,.44-2.19l6.58,1.31a1.12,1.12,0,0,1-.22,2.21Zm1029.49-1.87a1.12,1.12,0,0,1-.2-2.22l6.59-1.25a1.12,1.12,0,1,1,.41,2.2l-6.59,1.25Zm-1051.42-2.49-.22,0-6.58-1.31a1.11,1.11,0,0,1-.88-1.31,1.1,1.1,0,0,1,1.31-.88l6.58,1.31a1.12,1.12,0,0,1-.21,2.21Zm1073.4-1.67a1.12,1.12,0,0,1-.21-2.22l6.59-1.24a1.11,1.11,0,1,1,.42,2.19l-6.59,1.25Zm-1095.33-2.69-.22,0-6.58-1.31a1.12,1.12,0,1,1,.43-2.19l6.58,1.31a1.12,1.12,0,0,1-.21,2.21Zm1117.3-1.47a1.11,1.11,0,0,1-.21-2.21l6.6-1.25a1.12,1.12,0,0,1,.41,2.2l-6.59,1.24A.75.75,0,0,1,1776.72,1551.11Zm-1139.24-2.89-.22,0-6.58-1.31a1.12,1.12,0,1,1,.44-2.19l6.58,1.31a1.12,1.12,0,0,1,.88,1.31A1.13,1.13,0,0,1,637.48,1548.22ZM1798.69,1547a1.12,1.12,0,0,1-1.09-.92,1.11,1.11,0,0,1,.89-1.3l6.59-1.25a1.12,1.12,0,0,1,.41,2.2l-6.59,1.25Zm-1183.14-3.1a.78.78,0,0,1-.22,0l-6.58-1.31a1.12,1.12,0,1,1,.44-2.19l6.58,1.31a1.12,1.12,0,0,1-.22,2.21Zm1205.12-1.06a1.12,1.12,0,0,1-.21-2.22l6.59-1.25a1.14,1.14,0,0,1,1.31.9,1.12,1.12,0,0,1-.89,1.3l-6.6,1.25Zm-1227.06-3.3a.86.86,0,0,1-.22,0l-6.58-1.31a1.12,1.12,0,0,1,.44-2.19l6.58,1.31a1.12,1.12,0,0,1-.22,2.21Zm1249-.86a1.12,1.12,0,0,1-.21-2.22l6.59-1.24a1.11,1.11,0,1,1,.42,2.19l-6.59,1.25Zm-1271-3.5a.86.86,0,0,1-.22,0l-6.58-1.31a1.12,1.12,0,1,1,.44-2.19l6.58,1.31a1.12,1.12,0,0,1-.22,2.21Zm1292.93-.66a1.11,1.11,0,0,1-.2-2.21L1871,1531a1.12,1.12,0,0,1,.41,2.2l-6.59,1.24A.75.75,0,0,1,1864.61,1534.48Zm-1314.86-3.7-.22,0-6.58-1.31a1.11,1.11,0,0,1-.88-1.31,1.1,1.1,0,0,1,1.31-.88l6.58,1.31a1.12,1.12,0,0,1-.21,2.21Zm1336.83-.45a1.12,1.12,0,0,1-.2-2.22l6.59-1.25a1.12,1.12,0,1,1,.42,2.2l-6.6,1.25Zm-1358.76-3.91a.9.9,0,0,1-.23,0l-6.58-1.31a1.12,1.12,0,0,1,.44-2.19l6.58,1.31a1.12,1.12,0,0,1-.21,2.21Zm1380.74-.25a1.12,1.12,0,0,1-.21-2.22l6.59-1.24a1.11,1.11,0,1,1,.42,2.19l-6.59,1.25Zm-1402.68-4.11a.82.82,0,0,1-.22,0l-6.58-1.31a1.12,1.12,0,1,1,.44-2.19l6.58,1.31a1.12,1.12,0,0,1-.22,2.21ZM484,1517.7a.78.78,0,0,1-.22,0l-6.58-1.31a1.12,1.12,0,1,1,.43-2.19l6.58,1.31a1.12,1.12,0,0,1-.21,2.21ZM462,1513.34a.86.86,0,0,1-.22,0l-6.58-1.31a1.12,1.12,0,0,1,.44-2.19l6.58,1.31a1.12,1.12,0,0,1-.22,2.21Zm1457.54-.55h0a1.11,1.11,0,0,1-1.1-1.13q0-3.35,0-6.7a1.12,1.12,0,0,1,1.12-1.11h0a1.1,1.1,0,0,1,1.11,1.12c0,2.24,0,4.48,0,6.72A1.11,1.11,0,0,1,1919.55,1512.79Zm-1475.92-6.87a1.12,1.12,0,0,1-1.12-1.07l-.32-6.7a1.12,1.12,0,0,1,2.23-.11l.32,6.7a1.12,1.12,0,0,1-1.06,1.18Zm1475.91-15.49a1.11,1.11,0,0,1-1.11-1.11l-.09-6.7a1.12,1.12,0,0,1,1.1-1.13h0a1.12,1.12,0,0,1,1.12,1.1c0,2.24.06,4.47.08,6.71a1.12,1.12,0,0,1-1.11,1.13ZM442.6,1483.57a1.12,1.12,0,0,1-1.12-1.07l-.28-6.71a1.12,1.12,0,0,1,2.24-.09l.28,6.71a1.12,1.12,0,0,1-1.07,1.16Zm1476.53-15.49A1.13,1.13,0,0,1,1918,1467c-.06-2.23-.12-4.46-.2-6.68a1.13,1.13,0,0,1,1.08-1.16h0a1.12,1.12,0,0,1,1.12,1.08q.1,3.36.2,6.7a1.12,1.12,0,0,1-1.09,1.15Zm-1477.41-6.86a1.12,1.12,0,0,1-1.12-1.08l-.23-6.71a1.12,1.12,0,0,1,1.08-1.15,1.06,1.06,0,0,1,1.15,1.08l.24,6.7a1.12,1.12,0,0,1-1.08,1.16Zm1476.62-15.45a1.12,1.12,0,0,1-1.12-1.07q-.13-3.35-.3-6.68a1.11,1.11,0,0,1,1.06-1.17,1.07,1.07,0,0,1,1.17,1.06q.16,3.35.31,6.69a1.13,1.13,0,0,1-1.07,1.17ZM441,1438.87a1.11,1.11,0,0,1-1.12-1.09l-.19-6.71a1.11,1.11,0,0,1,1.08-1.15,1.15,1.15,0,0,1,1.15,1.09l.19,6.7a1.12,1.12,0,0,1-1.08,1.16Zm1476.21-15.42a1.12,1.12,0,0,1-1.12-1.06q-.19-3.35-.41-6.69a1.12,1.12,0,0,1,1-1.19,1.1,1.1,0,0,1,1.19,1q.21,3.35.41,6.7a1.11,1.11,0,0,1-1,1.18Zm-1476.8-6.94a1.13,1.13,0,0,1-1.12-1.1l-.14-6.71a1.12,1.12,0,0,1,1.09-1.14,1.18,1.18,0,0,1,1.14,1.1l.15,6.7a1.13,1.13,0,0,1-1.09,1.15Zm1475.32-15.38a1.13,1.13,0,0,1-1.12-1q-.24-3.35-.5-6.69a1.12,1.12,0,0,1,1-1.2,1.13,1.13,0,0,1,1.2,1l.51,6.7a1.12,1.12,0,0,1-1,1.19Zm-1475.75-7a1.12,1.12,0,0,1-1.12-1.1l-.1-6.71a1.12,1.12,0,0,1,1.11-1.13h0a1.12,1.12,0,0,1,1.12,1.1l.1,6.71a1.11,1.11,0,0,1-1.1,1.13Zm1474-15.31a1.12,1.12,0,0,1-1.11-1c-.2-2.24-.4-4.46-.6-6.68a1.12,1.12,0,0,1,1-1.22,1.13,1.13,0,0,1,1.22,1q.3,3.35.59,6.69a1.11,1.11,0,0,1-1,1.21Zm-1474.23-7a1.11,1.11,0,0,1-1.12-1.11l-.05-6.71a1.12,1.12,0,0,1,1.11-1.13h0a1.12,1.12,0,0,1,1.11,1.12l.06,6.7a1.13,1.13,0,0,1-1.11,1.13Zm1472.14-15.23a1.11,1.11,0,0,1-1.11-1c-.23-2.23-.45-4.46-.68-6.67a1.11,1.11,0,0,1,1-1.23,1.14,1.14,0,0,1,1.23,1q.35,3.33.68,6.68a1.12,1.12,0,0,1-1,1.23Zm-1472.25-7.13a1.12,1.12,0,0,1-1.11-1.12v-6.7a1.13,1.13,0,0,1,1.12-1.13h0a1.12,1.12,0,0,1,1.11,1.12v6.71A1.12,1.12,0,0,1,439.59,1349.42Zm1469.87-15.11a1.11,1.11,0,0,1-1.1-1l-.77-6.67a1.12,1.12,0,1,1,2.22-.25l.77,6.66a1.12,1.12,0,0,1-1,1.24Zm-1469.79-7.26h0a1.12,1.12,0,0,1-1.11-1.13l.06-6.69a1.12,1.12,0,0,1,1.12-1.11h0a1.12,1.12,0,0,1,1.11,1.13l-.06,6.69A1.12,1.12,0,0,1,439.67,1327.05Zm1467.15-15a1.13,1.13,0,0,1-1.11-1l-.84-6.66a1.11,1.11,0,1,1,2.21-.28l.85,6.66a1.12,1.12,0,0,1-1,1.25ZM440,1304.7h0a1.12,1.12,0,0,1-1.1-1.14l.12-6.7a1.12,1.12,0,0,1,2.24,0l-.12,6.7A1.12,1.12,0,0,1,440,1304.7Zm1464-14.79a1.12,1.12,0,0,1-1.11-1q-.45-3.35-.92-6.65a1.12,1.12,0,0,1,2.21-.31c.31,2.21.62,4.42.93,6.66a1.11,1.11,0,0,1-1,1.25Zm-1463.47-7.56h0a1.13,1.13,0,0,1-1.09-1.15l.2-6.71a1.12,1.12,0,1,1,2.23.07l-.19,6.7A1.13,1.13,0,0,1,440.44,1282.35Zm1460.31-14.59a1.11,1.11,0,0,1-1.11-1q-.5-3.35-1-6.63a1.12,1.12,0,1,1,2.21-.34q.5,3.3,1,6.64a1.11,1.11,0,0,1-.94,1.27ZM441.17,1260h0a1.12,1.12,0,0,1-1.07-1.16l.27-6.72a1.06,1.06,0,0,1,1.16-1.07,1.12,1.12,0,0,1,1.07,1.17l-.27,6.7A1.12,1.12,0,0,1,441.17,1260Zm1456.17-14.34a1.11,1.11,0,0,1-1.1-.94c-.36-2.22-.71-4.43-1.07-6.62a1.11,1.11,0,1,1,2.2-.36q.54,3.29,1.08,6.63a1.13,1.13,0,0,1-.93,1.28Zm-1455.16-8h-.06a1.12,1.12,0,0,1-1.06-1.17l.36-6.72a1.09,1.09,0,0,1,1.17-1.06,1.13,1.13,0,0,1,1.06,1.18l-.36,6.71A1.11,1.11,0,0,1,442.18,1237.63Zm1451.51-14.05a1.12,1.12,0,0,1-1.1-.93l-1.14-6.61a1.12,1.12,0,0,1,.9-1.3,1.13,1.13,0,0,1,1.3.91l1.14,6.62a1.11,1.11,0,0,1-.91,1.29Zm-1450.21-8.29h-.07a1.12,1.12,0,0,1-1-1.19c.15-2.24.3-4.48.46-6.7a1.12,1.12,0,1,1,2.23.15q-.24,3.35-.46,6.69A1.13,1.13,0,0,1,443.48,1215.29Zm1446.31-13.75a1.12,1.12,0,0,1-1.09-.91l-1.22-6.6a1.12,1.12,0,1,1,2.2-.41l1.22,6.6a1.12,1.12,0,0,1-.9,1.3A.75.75,0,0,1,1889.79,1201.54ZM445.14,1193h-.09a1.11,1.11,0,0,1-1-1.21c.18-2.24.38-4.47.57-6.69a1.12,1.12,0,0,1,2.23.2c-.2,2.22-.39,4.44-.57,6.68A1.12,1.12,0,0,1,445.14,1193Zm1440.52-13.43a1.11,1.11,0,0,1-1.09-.9c-.44-2.24-.87-4.43-1.29-6.59a1.12,1.12,0,0,1,2.19-.43q.65,3.22,1.29,6.59a1.12,1.12,0,0,1-.88,1.31A.78.78,0,0,1,1885.66,1179.55Zm-1438.44-8.84h-.12a1.13,1.13,0,0,1-1-1.23q.34-3.36.72-6.68a1.12,1.12,0,1,1,2.22.25c-.25,2.2-.48,4.43-.71,6.66A1.12,1.12,0,0,1,447.22,1170.71Zm1434.05-13.1a1.13,1.13,0,0,1-1.09-.89l-1.37-6.57a1.12,1.12,0,1,1,2.19-.46l1.37,6.57a1.12,1.12,0,0,1-.87,1.33Zm-1431.49-9.12h-.14a1.1,1.1,0,0,1-1-1.25c.28-2.23.58-4.45.88-6.66a1.12,1.12,0,0,1,2.22.3c-.3,2.2-.6,4.42-.88,6.65A1.13,1.13,0,0,1,449.78,1148.49Zm1426.83-12.8a1.09,1.09,0,0,1-1.08-.85l-.58-2.65a1,1,0,0,0-.82-.45l-1.63-.2a1.12,1.12,0,0,1-1-1.24,1.16,1.16,0,0,1,1.24-1l1.65.2a3.05,3.05,0,0,1,2.72,2.19l.58,2.6a1.13,1.13,0,0,1-.85,1.35A1.07,1.07,0,0,1,1876.61,1135.69Zm-19.54-5.87H1857l-6.66-.68a1.11,1.11,0,0,1-1-1.22,1.13,1.13,0,0,1,1.23-1l6.68.67a1.13,1.13,0,0,1,1,1.23A1.11,1.11,0,0,1,1857.07,1129.82Zm-22.26-2.12h-.1l-6.68-.58a1.11,1.11,0,0,1-1-1.21,1.09,1.09,0,0,1,1.21-1l6.69.57a1.12,1.12,0,0,1-.1,2.23ZM453,1126.35h-.18a1.11,1.11,0,0,1-.92-1.28c.35-2.23.72-4.44,1.09-6.63a1.13,1.13,0,0,1,1.29-.92,1.12,1.12,0,0,1,.92,1.29c-.38,2.18-.74,4.39-1.09,6.61A1.13,1.13,0,0,1,453,1126.35Zm1359.57-.47h-.09l-6.69-.5a1.12,1.12,0,0,1-1-1.2,1.15,1.15,0,0,1,1.2-1l6.69.5a1.12,1.12,0,0,1-.08,2.24Zm-22.31-1.61h-.07l-6.7-.44a1.12,1.12,0,0,1-1-1.19,1.16,1.16,0,0,1,1.19-1l6.69.44a1.12,1.12,0,0,1-.07,2.23Zm-22.32-1.42h-.07l-6.69-.4a1.12,1.12,0,0,1-1.05-1.18,1.13,1.13,0,0,1,1.18-1l6.7.39a1.12,1.12,0,0,1-.07,2.24Zm-22.33-1.28h-.06l-6.69-.36a1.12,1.12,0,1,1,.11-2.23l6.7.36a1.12,1.12,0,0,1-.06,2.23Zm-22.33-1.16h0l-6.7-.33a1.12,1.12,0,0,1-1.07-1.17,1.09,1.09,0,0,1,1.18-1.06l6.7.32a1.12,1.12,0,0,1-.06,2.24Zm-22.34-1.06h-.05l-6.7-.3a1.12,1.12,0,1,1,.1-2.23l6.7.3a1.13,1.13,0,0,1,1.07,1.17A1.11,1.11,0,0,1,1700.89,1119.35Zm-22.34-1h0l-6.7-.27a1.12,1.12,0,0,1-1.07-1.17,1.16,1.16,0,0,1,1.16-1.07l6.71.28a1.12,1.12,0,0,1,0,2.23Zm-22.35-.88h0l-6.71-.25a1.12,1.12,0,0,1-1.07-1.16,1,1,0,0,1,1.16-1.07l6.7.25a1.12,1.12,0,0,1,1.08,1.16A1.13,1.13,0,0,1,1656.2,1117.51Zm-22.35-.82h0l-6.7-.23a1.13,1.13,0,0,1-1.08-1.16,1.11,1.11,0,0,1,1.16-1.08l6.7.23a1.12,1.12,0,0,1,0,2.24Zm-22.35-.75h0l-6.71-.21a1.12,1.12,0,0,1-1.08-1.15,1.1,1.1,0,0,1,1.15-1.08l6.71.21a1.12,1.12,0,0,1,0,2.24Zm-22.35-.7h0l-6.7-.2a1.13,1.13,0,0,1-1.09-1.15,1.17,1.17,0,0,1,1.16-1.08l6.7.2a1.12,1.12,0,0,1,0,2.23Zm-22.35-.64h0l-6.7-.19a1.12,1.12,0,1,1,.06-2.23l6.71.18a1.12,1.12,0,0,1,0,2.24Zm-22.36-.6h0l-6.71-.17a1.12,1.12,0,0,1-1.09-1.14,1.11,1.11,0,0,1,1.15-1.09l6.71.17a1.12,1.12,0,0,1,0,2.23Zm-22.36-.55h0l-6.71-.16a1.12,1.12,0,1,1,.05-2.23l6.71.16a1.12,1.12,0,0,1,0,2.23Zm-22.35-.51h0l-6.71-.14a1.13,1.13,0,0,1-1.09-1.15,1.18,1.18,0,0,1,1.14-1.09l6.71.14a1.12,1.12,0,0,1,0,2.24Zm-22.36-.47h0l-6.71-.14a1.12,1.12,0,1,1,0-2.23l6.71.13a1.12,1.12,0,0,1,1.1,1.14A1.13,1.13,0,0,1,1477.37,1112.47ZM1455,1112h0l-6.7-.12a1.13,1.13,0,0,1-1.1-1.14,1.19,1.19,0,0,1,1.14-1.1l6.7.12a1.12,1.12,0,0,1,0,2.24Zm-990.78-.16a1.12,1.12,0,1,1,0-2.23l6.71-.09a1.17,1.17,0,0,1,1.13,1.11,1.11,1.11,0,0,1-1.1,1.13l-6.72.08Zm968.43-.24h0l-6.71-.12a1.12,1.12,0,0,1-1.1-1.13,1.16,1.16,0,0,1,1.14-1.1l6.71.11a1.12,1.12,0,0,1,0,2.24Zm-946,0a1.12,1.12,0,0,1,0-2.24l6.71-.08a1.09,1.09,0,0,1,1.13,1.11,1.12,1.12,0,0,1-1.1,1.13l-6.72.08Zm22.37-.26a1.12,1.12,0,0,1,0-2.24l6.71-.07h0a1.12,1.12,0,0,1,0,2.23l-6.71.08Zm901.32-.09h0l-6.71-.1a1.12,1.12,0,0,1-1.1-1.14,1.2,1.2,0,0,1,1.14-1.1l6.71.11a1.12,1.12,0,0,1,0,2.23Zm-878.94-.16a1.12,1.12,0,0,1,0-2.24l6.71-.07h0a1.12,1.12,0,0,1,0,2.24l-6.71.07Zm856.57-.18h0l-6.71-.1a1.11,1.11,0,0,1-1.1-1.13,1.07,1.07,0,0,1,1.13-1.1l6.71.09a1.12,1.12,0,0,1,0,2.24Zm-834.2-.06a1.12,1.12,0,0,1,0-2.24l6.71-.06a1.06,1.06,0,0,1,1.13,1.1,1.11,1.11,0,0,1-1.11,1.13l-6.71.07Zm22.37-.23a1.12,1.12,0,1,1,0-2.23l6.71-.07a1.07,1.07,0,0,1,1.13,1.11,1.12,1.12,0,0,1-1.11,1.13l-6.71.06Zm789.48,0h0l-6.71-.09a1.12,1.12,0,0,1,0-2.23h0l6.71.09a1.12,1.12,0,1,1,0,2.23Zm-767.11-.18a1.12,1.12,0,0,1,0-2.24l6.71-.06a1.18,1.18,0,0,1,1.13,1.11,1.12,1.12,0,0,1-1.11,1.13l-6.71.06Zm744.74-.11h0l-6.71-.08a1.12,1.12,0,0,1,0-2.23h0l6.71.08a1.12,1.12,0,0,1,0,2.23Zm-722.37-.09a1.12,1.12,0,0,1,0-2.24l6.71-.06h0a1.12,1.12,0,0,1,0,2.24l-6.71.06Zm700-.17h0l-6.71-.08a1.12,1.12,0,1,1,0-2.23h0l6.7.07a1.12,1.12,0,0,1,0,2.24Zm-677.64,0a1.12,1.12,0,0,1,0-2.24l6.71,0h0a1.12,1.12,0,1,1,0,2.23l-6.71.06Zm22.37-.18a1.12,1.12,0,0,1,0-2.24l6.71,0h0a1.12,1.12,0,0,1,0,2.23l-6.71.06Zm632.91,0h0l-6.71-.07a1.12,1.12,0,0,1,0-2.24h0l6.71.07a1.12,1.12,0,0,1,0,2.24Zm-610.54-.15a1.12,1.12,0,0,1,0-2.23l6.71-.05h0a1.12,1.12,0,0,1,0,2.23l-6.71.05Zm588.18-.07h0l-6.71-.06a1.12,1.12,0,0,1,0-2.24h0l6.71.06a1.12,1.12,0,0,1,0,2.24Zm-565.81-.09a1.12,1.12,0,1,1,0-2.23l6.71,0h0a1.12,1.12,0,1,1,0,2.23l-6.71,0Zm543.45-.11h0l-6.71-.05a1.12,1.12,0,0,1,0-2.24h0l6.71.06a1.12,1.12,0,1,1,0,2.23Zm-521.08,0a1.12,1.12,0,0,1,0-2.24l6.71,0a1.14,1.14,0,0,1,1.12,1.11,1.12,1.12,0,0,1-1.11,1.13l-6.71,0Zm498.72-.13h0l-6.71,0a1.12,1.12,0,0,1,0-2.24h0l6.7,0a1.12,1.12,0,0,1,0,2.24Zm-476.36,0a1.12,1.12,0,0,1,0-2.24l6.71,0h0a1.12,1.12,0,0,1,0,2.24l-6.71,0Zm22.59-.13a1.22,1.22,0,0,1-1.23-1.11,1,1,0,0,1,1-1.13l6.72,0h0a1.12,1.12,0,0,1,0,2.23l-6.49,0Zm431.4,0h0l-6.7,0a1.12,1.12,0,0,1,0-2.24h0l6.71,0a1.12,1.12,0,0,1,0,2.24ZM800,1109a1.2,1.2,0,0,1-1.21-1.11,1.05,1.05,0,0,1,1-1.13l6.71,0h0a1.12,1.12,0,1,1,0,2.23l-6.51,0Zm386.7,0h0l-6.71,0a1.12,1.12,0,0,1-1.11-1.12,1.08,1.08,0,0,1,1.13-1.11l6.71,0a1.12,1.12,0,0,1,0,2.23Zm-364.4-.07a1.17,1.17,0,0,1-1.18-1.11,1.07,1.07,0,0,1,1-1.12l6.71,0h0a1.12,1.12,0,0,1,0,2.24l-6.59,0Zm342,0h0l-6.71,0a1.12,1.12,0,0,1,0-2.24h0l6.71,0a1.12,1.12,0,0,1,0,2.23Zm-319.69,0a1.16,1.16,0,0,1-1.17-1.11,1.07,1.07,0,0,1,1.06-1.12l6.71,0h0a1.12,1.12,0,1,1,0,2.24l-6.6,0Zm297.32,0h0l-6.71,0a1.12,1.12,0,0,1,0-2.23h0l6.71,0a1.12,1.12,0,0,1,0,2.24Zm-275,0a1.16,1.16,0,0,1-1.16-1.11,1.09,1.09,0,0,1,1.07-1.13l6.71,0h0a1.12,1.12,0,0,1,1.12,1.11,1.13,1.13,0,0,1-1.11,1.13l-6.62,0Zm252.61-.05h0l-6.7,0a1.12,1.12,0,1,1,0-2.23h0l6.71,0a1.12,1.12,0,0,1,1.12,1.12A1.13,1.13,0,0,1,1119.58,1108.61Zm-230.33,0a1.12,1.12,0,0,1,0-2.24l6.7,0h0a1.12,1.12,0,0,1,0,2.24l-6.71,0Zm208,0h0l-6.7,0a1.12,1.12,0,1,1,0-2.24h0l6.71,0a1.12,1.12,0,0,1,1.12,1.12A1.13,1.13,0,0,1,1097.22,1108.54Zm-185.6,0a1.12,1.12,0,0,1,0-2.24l6.71,0h0a1.13,1.13,0,0,1,1.12,1.12,1.12,1.12,0,0,1-1.12,1.12l-6.71,0Zm163.23,0h-6.71a1.1,1.1,0,0,1-1.11-1.12,1.12,1.12,0,0,1,1.11-1.12h0l6.71,0a1.12,1.12,0,1,1,0,2.23Zm-140.87,0a1.12,1.12,0,0,1,0-2.24h6.71a1.12,1.12,0,0,1,0,2.24H934Zm118.51,0h-6.71a1.13,1.13,0,0,1-1.11-1.12,1.12,1.12,0,0,1,1.11-1.12h6.72a1.12,1.12,0,0,1,0,2.23Zm-96.14,0a1.12,1.12,0,1,1,0-2.23h6.71a1.12,1.12,0,1,1,0,2.23Zm73.78,0h-6.71a1.12,1.12,0,1,1,0-2.24h6.71a1.12,1.12,0,1,1,0,2.23Zm-51.41,0a1.12,1.12,0,1,1,0-2.24h6.69a1.12,1.12,0,1,1,0,2.24Zm29,0h-6.71a1.12,1.12,0,1,1,0-2.23h6.71a1.12,1.12,0,0,1,0,2.23Z" transform="translate(-321.8 -335)"/><path class="cls-13" d="M1292.33,1784.55H1099.38a49.85,49.85,0,0,1-49.58-43.8l-22.29-185.67a49.78,49.78,0,0,1,49.58-55.59h231.79a49.79,49.79,0,0,1,49.74,54.09l-16.56,185.66A49.83,49.83,0,0,1,1292.33,1784.55Z" transform="translate(-321.8 -335)"/><path class="cls-11" d="M1268.6,1750.4H1121.74a37.94,37.94,0,0,1-37.73-33.34l-17-141.31a37.89,37.89,0,0,1,37.74-42.31H1281.2a37.89,37.89,0,0,1,37.85,41.17l-12.6,141.31A37.93,37.93,0,0,1,1268.6,1750.4Z" transform="translate(-321.8 -335)"/><path class="cls-14" d="M1136,1792.37s-15.2-40-33-36.34-37.16,17.3-37.16,17.3l-28.52,38.56s80.05,31.53,108.2,13.46c0,0,81.76,14.13,185-2.81-15-31.56-23.86-63.15-29.09-87.67C1249.17,1764.47,1192.84,1786.58,1136,1792.37Z" transform="translate(-321.8 -335)"/><path class="cls-10" d="M1569.06,1502.22s-117.06,147.44-267.6,232.65c5.23,24.52,14.14,56.11,29.09,87.67,78.09-12.82,168.47-43.4,245.09-111.35Z" transform="translate(-321.8 -335)"/><path class="cls-15" d="M691.71,1521.72,699,1716.9a536.07,536.07,0,0,0,59,16.76c11.71-37.69,37.48-83.94,58.59-118.33C739,1587.92,691.71,1521.72,691.71,1521.72Z" transform="translate(-321.8 -335)"/><path class="cls-16" d="M1078.87,1518.4C972.49,1633.25,886.4,1640,816.58,1615.33,795.47,1649.72,769.7,1696,758,1733.66c284.06,62.62,351-198.52,351-198.52Z" transform="translate(-321.8 -335)"/><path class="cls-17" d="M1100.44,1506.2s12.25-13.16,34.93-9,42.86,12,57,0,19.1,4.11,19.1,4.11l-42.31,32.16Z" transform="translate(-321.8 -335)"/><path class="cls-18" d="M1075.13,1528.69s8.4-35.1,33.7-30.29,82.74,36,97.54,30.29,33.73-19.52,43.45-14.65l-17.11,21.26s44-25.37,51.55-9.78l-73.18,41.18S1104,1556,1075.13,1528.69Z" transform="translate(-321.8 -335)"/><path class="cls-19" d="M323.48,2165s-36.3-518.17,228.29-679.3c0,0,74-48.83,166.15,45.74s62.5,192.83-14.86,284.92S546.92,2072.93,565.67,2165Z" transform="translate(-321.8 -335)"/><path class="cls-20" d="M685.13,1344.56c-.07,6.18-88.18,131.33-88.18,131.33s15.81,31.14,91.31,56.43l65.17-134Z" transform="translate(-321.8 -335)"/><path class="cls-21" d="M650.48,1774.24s167.16,140,347.67,78.91a43,43,0,0,1,33.89,2.55l51.89,27.41a46.34,46.34,0,0,0,61.4-17.19c7.21-12.06,13.36-25.84,14.58-39l-101.54-41.11,7.49-12.45s-49.58-4.2-62.56,31.33c0,0-94.43,39.28-253.68-135.89C749.62,1668.77,677.35,1730.22,650.48,1774.24Z" transform="translate(-321.8 -335)"/><path class="cls-22" d="M641.48,1773.62a3.69,3.69,0,0,1-2.07-.63c-70.59-47.7-103.8-124.68-104.13-125.45a3.7,3.7,0,0,1,6.81-2.89c.32.75,32.74,75.78,101.46,122.21a3.69,3.69,0,0,1-2.07,6.76Z" transform="translate(-321.8 -335)"/><path class="cls-22" d="M746.32,1667.23a3.69,3.69,0,0,1-3.11-1.69c-.21-.33-21.73-33.83-62.7-107.19-12.48-22.34-28.85-36.48-48.68-42-32.87-9.21-64.57,8.44-64.89,8.62a3.7,3.7,0,0,1-3.66-6.43c1.4-.8,34.61-19.34,70.48-9.34,21.82,6.09,39.72,21.42,53.21,45.57,40.83,73.12,62.24,106.46,62.46,106.79a3.7,3.7,0,0,1-3.11,5.7Z" transform="translate(-321.8 -335)"/><path class="cls-23" d="M754.5,1272.85s31.35,72,33.45,109.82,10.25,62.32-33.45,69.94S674,1438.45,654,1400.79c0,0-31.25-58-24.24-81.78S754.5,1272.85,754.5,1272.85Z" transform="translate(-321.8 -335)"/><path class="cls-24" d="M669,1373.72l2.49-1.1a6,6,0,0,0,2.93-8.24c-6.16-11.9-18.18-39.19-2.66-45.56,20-8.2,99.24-24.36,116.34-52.48,16.43-27,1.87-61.9-20-71.82a3,3,0,0,0-3.94,1.29l-1.82,3.45a3,3,0,0,1-5.48-.57h0a3,3,0,0,0-5.35-.76c-5.26,8.41-19.44,22-57.38,29-53.92,10-89.57,31.77-90.46,69a3,3,0,0,1-4.59,2.45c-4-2.43-10.36-3.57-18.87,3.59-14.81,12.45-8.75,44.75,23.71,71.32a3,3,0,0,1-.14,4.76c-5.88,3.83-14.66,12.95,8.08,25.1,23.51,12.56,41.07,11.53,47.83,10.42a3,3,0,0,0,2.4-3.57l-7.22-32.75a3,3,0,0,1,2.9-3.61Z" transform="translate(-321.8 -335)"/><path class="cls-25" d="M670.32,1380.63s-12-46-32.59-33.1,10.7,51.54,27.29,53.26Z" transform="translate(-321.8 -335)"/><path class="cls-26" d="M1032,1855.7s42.48,41.55,50.67,35.5c2.92-2.15,10.28-10,17.42-18.67a18.23,18.23,0,0,0,1.24-21.49l-10-15.46a29,29,0,0,0-43.23-6.3C1041.44,1835.1,1035.38,1843.52,1032,1855.7Z" transform="translate(-321.8 -335)"/><path class="cls-10" d="M1706.36,2165s-5.21-194.32-113.76-387.1c-33.95-60.3-46-130.48-35.43-198.87l11.89-76.81s149-50.4,314.08-2.12c0,0,229,181.56,75.94,664.9Z" transform="translate(-321.8 -335)"/><path class="cls-27" d="M1594.41,1404.2,1633,1497a18.52,18.52,0,0,0,14,11.12c22.27,3.81,76.13,9.78,111.51-13.48a9,9,0,0,0,2.4-12.64l-71.36-102.45Z" transform="translate(-321.8 -335)"/><path class="cls-7" d="M1689.68,1840.3a8.58,8.58,0,0,0-5.42,12.26L1796,2066.83a8.58,8.58,0,0,0,10,4.28l365.54-105.54a8.58,8.58,0,0,0,5.86-10.62l-63-218a8.57,8.57,0,0,0-10.42-5.91Z" transform="translate(-321.8 -335)"/><path class="cls-2" d="M1713.26,1815.12a9,9,0,0,0-6.34,11.84l89.45,243a9,9,0,0,0,10.91,5.52l364.44-105.22a9,9,0,0,0,6.28-10.52l-50.5-233.86a9,9,0,0,0-10.86-6.84Z" transform="translate(-321.8 -335)"/><path class="cls-15" d="M1745,1790.6a11.09,11.09,0,0,0-9.14,13.47l60.75,262.31a11.1,11.1,0,0,0,13.89,8.16l358.91-103.63a11.09,11.09,0,0,0,7.67-13.43l-55.2-214.12a11.1,11.1,0,0,0-12.41-8.2Z" transform="translate(-321.8 -335)"/><path class="cls-10" d="M2035.54,1890.63c27.85-210.43-134.31-372.23-134.31-372.23l-96.48,112.48c73.25,91.3,108.07,175,124,240.68C1949.82,1865.42,2000.61,1855.71,2035.54,1890.63Z" transform="translate(-321.8 -335)"/><path class="cls-8" d="M1928.72,1874a2.45,2.45,0,0,1-2.39-1.88c-19.73-81.51-61.28-162.16-123.51-239.72a2.47,2.47,0,0,1,3.85-3.09c62.68,78.13,104.55,159.43,124.45,241.65a2.47,2.47,0,0,1-1.81,3A3,3,0,0,1,1928.72,1874Z" transform="translate(-321.8 -335)"/><path class="cls-28" d="M1928.72,1871.56c14.79,61.07,13.23,106.64,11,128.4a17,17,0,0,1-15.67,15.18c-9.35.66-22.06,1.51-33.43,2.17-12.49.72-26.35-7.18-35.63-13.78a5.58,5.58,0,0,0-8.21,7.06c6.92,13.54,24.48,25.58,36.59,32.67a5.78,5.78,0,0,1-1.33,10.56l-51.77,14.67c85.06,80.14,141.22-9.53,141.22-9.53,37.55-58,57-114.75,64.06-168.33C2000.61,1855.71,1949.82,1865.42,1928.72,1871.56Z" transform="translate(-321.8 -335)"/><path class="cls-29" d="M1634.36,1262.22c-1.62,1.53-68.46,132.79-68.46,132.79l75.76,36.57,81.83-115S1661.52,1236.65,1634.36,1262.22Z" transform="translate(-321.8 -335)"/><path class="cls-24" d="M1689.06,1330.38l-37.78,63a12.28,12.28,0,0,1-2.07,2.58c-4.5,4.18-19.89,16.36-31.79-.22-10.14-14.13-19.65-27-29.85-32.27a12.07,12.07,0,0,0-16.3,5.36c-6.23,12.34-18.29,37.49-25.86,61.34a12,12,0,0,0,7,14.75c15.34,6.22,45.66,17.46,72.56,21.17a12.08,12.08,0,0,0,11.43-4.86c11.57-15.85,44.2-60.17,55.33-71.26,10.35-10.31,29.44-6.42,38-4a12.17,12.17,0,0,0,9.66-1.26c8.73-5.26,24-18.35,10-40.52a12.1,12.1,0,0,1,3.74-16.43c9.75-6.41,20.32-18.44,10.25-37.93-10.2-19.72-28.41-21.49-40.82-20a12.54,12.54,0,0,1-13.16-7.32,8,8,0,0,0-6.24-4.91,11.73,11.73,0,0,1-9.49-13.78c2.18-11.16.54-25.66-17.29-35.46-32.68-18-61.32,11.31-68.6,36s29.27,42.2,52.26,45.11c16.89,2.14,26.15,20.57,29.87,30.21A12.1,12.1,0,0,1,1689.06,1330.38Z" transform="translate(-321.8 -335)"/><path class="cls-30" d="M1677.54,1413.09s14.54-42.53,33.14-41,33.25,20.1,10.19,40.94C1692.19,1439,1677.54,1413.09,1677.54,1413.09Z" transform="translate(-321.8 -335)"/></g></g></svg>